<?xml version="1.0" standalone="no"?>
<!--
Font Awesome Pro 5.13.0 by @fontawesome - https://fontawesome.com
License - https://fontawesome.com/license (Commercial License)
-->
<!DOCTYPE svg PUBLIC "-//W3C//DTD SVG 1.1//EN" "http://www.w3.org/Graphics/SVG/1.1/DTD/svg11.dtd" >
<svg xmlns="http://www.w3.org/2000/svg" version="1.1">
	<metadata>
		Created by FontForge 20190801 at Mon Mar 23 10:47:38 2020
		By Robert Madole
		Copyright (c) Font Awesome
	</metadata>
	<defs>
		<font id="FontAwesome5Duotone-Solid" horiz-adv-x="512">
			<font-face
					font-family="Font Awesome 5 Duotone Solid"
					font-weight="900"
					font-stretch="normal"
					units-per-em="512"
					panose-1="2 0 5 3 0 0 0 0 0 0"
					ascent="448"
					descent="-64"
					bbox="-0.0332031 -64.5 640.04 448.329"
					underline-thickness="25"
					underline-position="-50"
					unicode-range="U+0020-10F976"
			/>
			<missing-glyph/>
			<glyph glyph-name="rocket-primary" unicode="&#xf135;"
				   d="M505.16 428.484c6.96875 -32.5723 6.90234 -58.0918 6.82422 -83.1816c0 -88.7656 -40.625 -156.217 -127.859 -212.277c-0.957031 -0.548828 -1.82812 -1.04883 -2.78906 -1.59766c-35.3906 -17.7246 -116.883 -58.0547 -163.457 -81.1035l-14.1758 -7.01367
c-3.69141 -1.82715 -10.0303 -3.31055 -14.1484 -3.31055c-7.26953 0 -17.3496 4.16211 -22.5 9.29102l-53.6523 53.3984c-5.18945 5.16504 -9.40137 15.2988 -9.40137 22.6211c0 4.11523 1.47949 10.4512 3.30371 14.1406c20.8438 42.1738 68.4492 138.451 88.0469 177.877
c0.554688 0.976562 1.06641 1.875 1.625 2.85352c55.832 87.2031 123.359 127.818 212.508 127.818c24.8906 0 50.7422 0 83.1406 -6.94531c5.62891 -1.30566 11.2451 -6.9375 12.5352 -12.5703zM368 256c26.4854 0.0117188 47.9893 21.5166 48 48.002
c-0.000976562 26.4951 -21.5049 47.998 -48 47.998c-26.4961 0 -48 -21.5039 -48 -48s21.5039 -48 48 -48z"/>
			<glyph glyph-name="plug-primary" unicode="&#xf1e6;" horiz-adv-x="384"
				   d="M384 272v-32c0 -8.83203 -7.16797 -16 -16 -16h-16v-32c-0.0107422 -72.1074 -57.3555 -142.354 -128 -156.8v-99.2002h-64v99.2002c-70.6445 14.4463 -127.989 84.6924 -128 156.8v32h-16c-8.83203 0 -16 7.16797 -16 16v32c0 8.83203 7.16797 16 16 16h352
c8.83203 0 16 -7.16797 16 -16z"/>
			<glyph glyph-name="hand-spock-primary" unicode="&#xf259;"
				   d="M288.003 -16c-8.82715 0 -16 7.16406 -16 15.9902v0.00976562c-0.0458984 44.1133 -35.8857 79.9531 -79.999 80c-8.81348 0.0185547 -15.9668 7.18652 -15.9668 16s7.15332 15.9814 15.9668 16h159.999c8.81348 -0.0185547 15.9668 -7.18652 15.9668 -16
s-7.15332 -15.9814 -15.9668 -16h-81.6875c18.5957 -18.1396 33.6875 -53.9443 33.6875 -79.9219v-0.078125v-0.00976562c0 -8.82617 -7.16406 -15.9902 -15.9902 -15.9902h-0.00976562z"/>
			<glyph glyph-name="shower-primary" unicode="&#xf2cc;"
				   d="M389.66 346.35c2.58691 -2.58691 4.6875 -7.65527 4.6875 -11.3145s-2.10059 -8.72852 -4.6875 -11.3154l-169.4 -169.37c-2.58594 -2.58398 -7.65332 -4.68262 -11.3096 -4.68262c-3.65723 0 -8.72363 2.09863 -11.3105 4.68262l-11.3193 11.3105
c-2.58496 2.58594 -4.68262 7.65332 -4.68262 11.3096c0 3.65723 2.09766 8.72363 4.68262 11.3105l5.67969 5.66992c-17.6621 17.9209 -31.999 52.8877 -32 78.0498c0 19.2402 5.2998 37.0801 13.9297 52.8604l-10 10c-9.44434 9.47461 -27.9678 17.1641 -41.3457 17.1641
c-2.10254 0 -5.5 -0.22168 -7.58398 -0.494141c-30 -3.73047 -51 -31.7803 -51 -61.9307v-305.6c0 -8.83203 -7.16797 -16 -16 -16h-32c-8.83203 0 -16 7.16797 -16 16v303.15c0 67.9395 55.4902 129.35 123.44 128.85c27.7246 -0.138672 66.1006 -16.1992 85.6592 -35.8496
l10 -10c15.8203 8.5498 33.6602 13.8496 52.9004 13.8496h0.00585938c25.1611 0 60.125 -14.3359 78.0439 -32l5.66992 5.66016c2.58691 2.58496 7.65332 4.68262 11.3105 4.68262c3.65625 0 8.72363 -2.09766 11.3096 -4.68262z"/>
			<glyph glyph-name="bath-primary" unicode="&#xf2cd;"
				   d="M32 64v48h448v-48c-0.0478516 -23.5742 -14.3848 -55.4229 -32 -71.0898v-40.9102c0 -8.83203 -7.16797 -16 -16 -16h-32c-8.83203 0 -16 7.16797 -16 16v16h-256v-16c0 -8.83203 -7.16797 -16 -16 -16h-32c-8.83203 0 -16 7.16797 -16 16v40.9102
c-17.6152 15.667 -31.9521 47.5156 -32 71.0898zM496 192c8.83203 0 16 -7.16797 16 -16v-16c0 -8.83203 -7.16797 -16 -16 -16h-480c-8.83203 0 -16 7.16797 -16 16v16c0 8.83203 7.16797 16 16 16h480z"/>
			<glyph glyph-name="compress-alt-primary" unicode="&#xf422;" horiz-adv-x="448"
				   d="M443.31 385.94c2.58789 -2.58691 4.68848 -7.65625 4.68848 -11.3154s-2.10059 -8.72852 -4.68848 -11.3154l-99.3096 -99.3096l32.9199 -31c15.1201 -15.1201 4.41016 -41 -17 -41h-111.92c-13.248 0 -24 10.752 -24 24v112c0 21.3799 25.7998 32.0898 40.9199 17
l31.0801 -33l99.3096 99.3096c2.58691 2.58789 7.65625 4.68848 11.3154 4.68848s8.72852 -2.10059 11.3154 -4.68848z"/>
			<glyph glyph-name="expand-alt-primary" unicode="&#xf424;" horiz-adv-x="448"
				   d="M235.31 251.31l92.6904 92.6904l-32.9199 31c-15.1201 15.1201 -4.41016 41 17 41h112c13.2041 -0.0439453 23.9199 -10.7959 23.9199 -24v0v-112c0 -21.3799 -25.7998 -32.0898 -40.9199 -17l-31.0801 33l-92.6904 -92.6904
c-2.58594 -2.58398 -7.65332 -4.68262 -11.3096 -4.68262s-8.72363 2.09863 -11.3096 4.68262l-25.3809 25.3809c-2.58398 2.58594 -4.68262 7.65332 -4.68262 11.3096s2.09863 8.72363 4.68262 11.3096z"/>
			<glyph glyph-name="balance-scale-left-primary" unicode="&#xf515;" horiz-adv-x="640"
				   d="M640 144c0 -44.1797 -57.3096 -80 -128 -80s-128 35.8203 -128 80c0 15.6699 -2.05957 7.25 85.0801 181.51c17.6797 35.3604 68.2197 35.29 85.8701 0c86.3896 -172.779 85.0498 -165.33 85.0498 -181.51zM440 160h144l-72 144zM170.93 197.51
c86.3906 -172.779 85.0703 -165.33 85.0703 -181.51c0 -44.1797 -57.3096 -80 -128 -80s-128 35.8203 -128 80c0 15.6699 -2.05957 7.25 85.0596 181.51c17.6807 35.3604 68.2207 35.29 85.8701 0zM56 32h144l-72 144z"/>
			<glyph glyph-name="balance-scale-right-primary" unicode="&#xf516;" horiz-adv-x="640"
				   d="M0 144c0 16.1797 -1.32031 8.73047 85.1299 181.51c17.6504 35.29 68.1904 35.3604 85.8701 0c87.0801 -174.26 85 -165.84 85 -181.51c0 -44.1797 -57.3096 -80 -128 -80s-128 35.8203 -128 80zM56 160h144l-72 144zM384 16c0 16.1797 -1.32031 8.73047 85.0801 181.51
c17.6504 35.29 68.1895 35.3604 85.8701 0c87.1299 -174.26 85.0498 -165.84 85.0498 -181.51c0 -44.1797 -57.3096 -80 -128 -80s-128 35.8203 -128 80zM440 32h144l-72 144z"/>
			<glyph glyph-name="robot-primary" unicode="&#xf544;" horiz-adv-x="640"
				   d="M464 352c44.1455 0 80 -35.8281 80 -79.9736v-0.0263672v-272c-0.0351562 -35.293 -28.707 -63.9648 -64 -64h-320c-35.293 0.0351562 -63.9648 28.707 -64 64v272v0.0263672c0 44.1455 35.8281 79.9736 79.9736 79.9736h0.0263672h288zM256 32v32h-64v-32h64zM224 152
c22.0781 0 40 17.9189 40 39.9971v0.00292969c0 22.0801 -17.9199 40 -40 40s-40 -17.9199 -40 -40s17.9199 -40 40 -40zM352 32v32h-64v-32h64zM448 32v32h-64v-32h64zM416 152c22.0781 0 40 17.9189 40 39.9971v0.00292969c0 22.0801 -17.9199 40 -40 40
s-40 -17.9199 -40 -40s17.9199 -40 40 -40z"/>
			<glyph glyph-name="grin-tongue-wink-primary" unicode="&#xf58b;" horiz-adv-x="496"
				   d="M212 225.74v0.0595703c1.59961 -11.0996 -11.5996 -18.2002 -20 -10.7998l-9.5 8.44043c-14.7998 13.1992 -46.2002 13.1992 -61 0l-9.5 -8.5c-8.5 -7.40039 -21.5996 -0.300781 -19.7998 10.7998c4 25.2598 34.2002 42.1094 59.8994 42.1094
c25.7002 0 55.9004 -16.9092 59.9004 -42.1094zM258.5 55.7402c3.5 15.3994 20.2002 24.0596 34.5898 17.5596c0.799805 -0.399414 -0.5 0.299805 19 -9.2998v-64.8701c-0.486328 -34.835 -29.1553 -63.1064 -63.9932 -63.1064
c-0.248047 0 -0.649414 0.00292969 -0.896484 0.00683594c-35.1006 0.399414 -63.1006 29.7002 -63.1006 64.9102v63c19.2002 9.59961 18 9 18.9004 9.39941c14.4004 6.5 31.0996 -2.2002 34.5996 -17.5996l1.80078 -7.7998c2.09961 -9.2207 15.1992 -9.2207 17.2998 0z
M344 264h0.120117c13.1816 -0.0332031 23.8799 -10.7578 23.8799 -23.9395c0 -13.2158 -10.7256 -23.9404 -23.9404 -23.9404s-23.9395 10.7246 -23.9395 23.9404c0 13.1816 10.6982 23.9062 23.8799 23.9395z"/>
			<glyph glyph-name="atom-primary" unicode="&#xf5d2;" horiz-adv-x="448"
				   d="M100.657 124.213c11.6035 -9.56543 31.2627 -23.9639 43.8828 -32.1406c-10.165 -2.25781 -26.8574 -4.44336 -37.2607 -4.87891c-2.67578 11.8867 -4.87207 24.2559 -6.62207 37.0195zM119.973 192c10.8037 10.417 29.4736 25.9609 41.6768 34.6973
c-2.16016 -27.915 -2.27539 -39.9893 0 -69.3945c-12.2031 8.73633 -30.873 24.2803 -41.6768 34.6973zM107.283 296.809c10.4023 -0.435547 27.0938 -2.62109 37.2568 -4.87891c-12.6201 -8.17773 -32.2793 -22.5771 -43.8828 -32.1426
c1.75 12.7656 3.94922 25.1348 6.62598 37.0215zM347.343 259.787c2.58887 -18.6201 4.68945 -48.9883 4.68945 -67.7871s-2.10059 -49.167 -4.68945 -67.7871c-1.75 -12.7637 -3.94629 -25.1328 -6.62207 -37.0195c-3.92578 -17.8926 -12.9561 -46.085 -20.1562 -62.9297
c-23.4727 -53.9824 -57.9834 -88.2637 -96.5645 -88.2637s-73.0918 34.2812 -96.5645 88.2637c18.1182 2.06934 46.9004 8.31738 64.2461 13.9473c12.4668 -24.6504 25.4023 -38.2109 32.3184 -38.2109s19.8555 13.5625 32.3184 38.2109
c2.81641 5.56738 24.3447 45.7021 30.0322 119.092c2.16016 27.915 2.27539 39.9893 0 69.3945c-5.6875 73.3945 -27.2275 113.548 -30.0322 119.092c-12.4629 24.6504 -25.4023 38.2109 -32.3184 38.2109s-19.8516 -13.5605 -32.3184 -38.209
c-17.3447 5.63086 -46.127 11.8789 -64.2461 13.9473c23.4727 53.9805 57.9834 88.2617 96.5645 88.2617s73.0918 -34.2812 96.5645 -88.2637c7.2002 -16.8438 16.2305 -45.0371 20.1562 -62.9297c2.67578 -11.8848 4.87207 -24.2539 6.62207 -37.0195zM256.014 192
c-0.0380859 -17.6338 -14.3799 -31.9697 -32.0137 -32c-17.6719 0 -32.0137 14.3418 -32.0137 32.0137s14.3418 32.0137 32.0137 32.0137s32.0137 -14.3418 32.0137 -32.0137v-0.0136719z"/>
			<glyph glyph-name="atom-alt-primary" unicode="&#xf5d3;" horiz-adv-x="448"
				   d="M224 160.012c-17.6582 0 -32 14.3311 -32 31.9893v0.00488281c0 17.6611 14.333 31.9941 31.9941 31.9941s31.9941 -14.333 31.9941 -31.9941c0 -17.6572 -14.3311 -31.9912 -31.9883 -31.9941zM121.461 192.002c24.208 -32.3477 70.1455 -78.1973 102.539 -102.344
c-15.1338 -11.2402 -41.1367 -27.1328 -58.043 -35.4746c-25.3398 20.6602 -51.4023 44.4297 -80.1992 79.7324c-12.4268 15.2158 -30.7158 41.2373 -40.8242 58.084c-49.2109 82.0801 -60.5264 161.1 -21.3086 200.309c16.0869 16.0762 38.8594 23.6914 65.7939 23.6914
c38.7451 0 86.1436 -16.1309 134.581 -45.1445c-16.8369 -10.1709 -42.8398 -28.5557 -58.043 -41.0371c-70.0117 34.334 -95.2227 19.0703 -97.0615 17.2324c-9.54395 -9.54102 -7.67578 -46.9434 16.8623 -96.9668c8.3877 -16.9326 24.3828 -42.9531 35.7031 -58.082z
M403.066 192c49.2109 -82.0801 60.5264 -161.1 21.3086 -200.307c-16.0869 -16.0781 -38.8594 -23.6934 -65.7939 -23.6934c-38.7451 0 -86.1436 16.1309 -134.581 45.1445c16.8369 10.1709 42.8398 28.5557 58.043 41.0371
c70.0117 -34.334 95.2227 -19.0703 97.0615 -17.2324c9.54395 9.54297 7.67578 46.9453 -16.8623 96.9668c-8.38672 16.9336 -24.3809 42.9551 -35.7031 58.084c-24.208 32.3467 -70.1455 78.1973 -102.539 102.344c15.1338 11.2402 41.1367 27.1318 58.043 35.4727
c25.3008 -20.6289 51.3555 -44.377 80.1992 -79.7324c12.4268 -15.2158 30.7158 -41.2373 40.8242 -58.084z"/>
			<glyph glyph-name="shapes-primary" unicode="&#xf61f;"
				   d="M512 128v-160c0 -17.6641 -14.3359 -32 -32 -32h-160c-17.6641 0 -32 14.3359 -32 32v160c0 17.6641 14.3359 32 32 32h160c17.6641 0 32 -14.3359 32 -32z"/>
			<glyph glyph-name="envelope-open-dollar-primary" unicode="&#xf657;"
				   d="M329.4 406.56l30.5996 -22.5596h-208l30.5898 22.5596c16.8203 12.2705 50.21 41.79 73.4102 41.4404c23.2002 0.349609 56.5996 -29.1797 73.4004 -41.4404zM493.61 285c10.1348 -7.94434 18.374 -24.8428 18.3896 -37.7197v-10.6504l-64 -46.2402v128.54
c23.8799 -17.6699 42.6699 -31.6299 45.6104 -33.9297zM64 319v-128.61l-64 46.2402v10.6504c0.015625 12.877 8.25488 29.7754 18.3896 37.7197c2.94043 2.34961 21.7305 16.3096 45.6104 34zM256 30.8701c14.29 0.00683594 35.2832 6.8125 46.8604 15.1895l209.14 151.08
v-213.14c0 -26.4961 -21.5039 -48 -48 -48h-416c-26.4961 0 -48 21.5039 -48 48v213.14l209.14 -151.08c11.5703 -8.38477 32.5566 -15.1895 46.8457 -15.1895h0.0146484zM240 312.87v16.1299c0 4.41602 3.58398 8 8 8h16c4.41602 0 8 -3.58398 8 -8v-16.29
c10.0098 -0.438477 24.4668 -5.89551 32.2695 -12.1797c2.10059 -2.23047 3.74023 -7.49023 -0.339844 -11.3105l-11.75 -11.2197c-1.29492 -1.18457 -3.77148 -2.14551 -5.52637 -2.14551c-1.39062 0 -3.45312 0.633789 -4.60352 1.41504
c-3.24219 2.04785 -8.98535 3.71875 -12.8193 3.73047h-28.1104c-6.5 0 -11.7998 -5.91992 -11.7998 -13.1904c0 -5.94922 3.60938 -11.1797 8.76953 -12.7295l45 -13.5c18.5801 -5.58008 31.5801 -23.3896 31.5801 -43.3896
c0 -24.5303 -19.0498 -44.4404 -42.6699 -45.0703v-16.1201c0 -4.41602 -3.58398 -8 -8 -8h-16c-4.41602 0 -8 3.58398 -8 8v16.29c-19.8301 1 -32.3496 12.1797 -32.2197 12.1797c-1.20117 1.27539 -2.17676 3.7334 -2.17676 5.48535
c0 1.90723 1.12695 4.51758 2.5166 5.8252l11.75 11.2197c1.29785 1.17969 3.77539 2.1377 5.5293 2.1377c1.38867 0 3.4502 -0.630859 4.60059 -1.40723c3.22852 -2.04297 8.94922 -3.71484 12.7695 -3.73047h28.1104c6.5 0 11.7998 5.91992 11.7998 13.1904
c0 5.94922 -3.60938 11.1797 -8.76953 12.7295l-45 13.5c-18.5801 5.58008 -31.5801 23.3896 -31.5801 43.3896c0 24.5205 19.0498 44.4404 42.6699 45.0703v-0.00976562z"/>
			<glyph glyph-name="envelope-open-text-primary" unicode="&#xf658;"
				   d="M352 288v-16c0 -8.83203 -7.16797 -16 -16 -16h-160c-8.83203 0 -16 7.16797 -16 16v16c0 8.83203 7.16797 16 16 16h160c8.83203 0 16 -7.16797 16 -16zM336 224c8.83203 0 16 -7.16797 16 -16v-16c0 -8.83203 -7.16797 -16 -16 -16h-160c-8.83203 0 -16 7.16797 -16 16
v16c0 8.83203 7.16797 16 16 16h160zM329.4 406.6l30.5996 -22.5996h-208l30.5996 22.5996c16.8008 12.2002 50.2002 41.7002 73.4004 41.4004c23.2002 0.299805 56.5996 -29.2002 73.4004 -41.4004zM64 319v-128.6l-64 46.1992v10.7002
c0.0234375 12.873 8.2666 29.7627 18.4004 37.7002c2.89941 2.40039 21.6992 16.2998 45.5996 34zM493.6 285c10.1338 -7.9375 18.377 -24.8271 18.4004 -37.7002v-10.7002l-64 -46.1992v128.5c23.9004 -17.6006 42.7002 -31.6006 45.5996 -33.9004zM256 30.9004
c14.3027 0.00195312 35.3145 6.81152 46.9004 15.1992l209.1 151v-213.1c0 -26.4961 -21.5039 -48 -48 -48h-416c-26.4961 0 -48 21.5039 -48 48v213.1l209.1 -151c11.5859 -8.3877 32.5977 -15.1973 46.9004 -15.1992z"/>
			<glyph glyph-name="bahai-primary" unicode="&#xf666;"
				   d="M496.25 245.48c17.54 -2.48047 21.6797 -26.2705 6.03027 -34.6602l-98.1602 -52.6602l74.4795 -83.54c11.8604 -13.29 0.0107422 -34.25 -17.3496 -30.4902l-108.57 23.6504l4.11035 -112.55c0.0117188 -0.249023 0.0224609 -0.652344 0.0224609 -0.900391
c0 -10.1133 -8.20801 -18.3203 -18.3203 -18.3203h-0.112305c-4.9209 0.000976562 -11.2822 3.21777 -14.2002 7.18066l-68.1797 88.8994l-68.1699 -88.9102c-2.91895 -3.96094 -9.28027 -7.17676 -14.2002 -7.17969h-0.112305
c-10.1133 0 -18.3203 8.20703 -18.3203 18.3193c0 0.251953 0.00976562 0.65918 0.0224609 0.911133l4.11035 112.55l-108.57 -23.6504c-1.10938 -0.24707 -2.93262 -0.449219 -4.06934 -0.450195c-15.0107 0 -24.21 18.6807 -13.29 30.9307l74.5498 83.5498
l-98.1602 52.6602c-15.6797 8.39941 -11.54 32.21 6 34.6699l110 15.4297l-41.8203 104.34c-6.66016 16.6299 11.5898 32.1807 26.5898 22.6299l94 -59.8896l34.0908 107.18c2.17383 7.07715 9.94629 12.8213 17.3496 12.8213s15.1758 -5.74414 17.3496 -12.8213
l34.1309 -107.18l94 59.8896c14.9893 9.55078 33.2598 -5.98926 26.5898 -22.6299l-41.8203 -104.34zM338.51 136.32l-35.6094 39.9297l46.9092 25.1201l-52.5693 7.37988l20 49.8701l-44.9502 -28.6201l-16.29 51.2803l-16.3096 -51.2803l-44.9209 28.6699l20 -49.8701
l-52.5693 -7.37988l46.9199 -25.1699l-35.6006 -39.9297l51.8906 11.2998l-2 -53.79l32.5898 42.4902l32.6201 -42.4902l-2 53.79z"/>
			<glyph glyph-name="lightbulb-on-primary" unicode="&#xf672;" horiz-adv-x="640"
				   d="M240.06 -6.33984l-0.0595703 38.3398h160v-38.3398c-0.253906 -5.25391 -2.67773 -13.166 -5.41016 -17.6602l-17.0898 -25.6904c-5.23047 -7.90918 -17.1699 -14.2793 -26.6396 -14.2793h-61.7002c-9.46973 0 -21.4102 6.37012 -26.6406 14.2793l-17.0996 25.6904
c-2.94727 4.42871 -5.34863 12.3398 -5.36035 17.6602zM112 256c0 -13.248 -10.752 -24 -24 -24h-64c-13.248 0 -24 10.752 -24 24s10.752 24 24 24h64c13.248 0 24 -10.752 24 -24zM616 280c13.248 0 24 -10.752 24 -24s-10.752 -24 -24 -24h-64
c-13.248 0 -24 10.752 -24 24s10.752 24 24 24h64zM131.08 392.78c6.83301 -3.78223 12.3789 -13.1895 12.3789 -20.999c0 -13.248 -10.752 -24 -24 -24c-3.68066 0 -9.22559 1.54004 -12.3789 3.43848l-55.4199 32c-6.83301 3.78223 -12.3789 13.1895 -12.3789 20.999
c0 13.248 10.752 24 24 24c3.67969 0 9.22559 -1.54004 12.3789 -3.43848zM588.34 128.78c6.41504 -3.8623 11.6211 -13.0742 11.6211 -20.5615c0 -13.248 -10.752 -24 -24 -24c-3.4209 0 -8.62793 1.34473 -11.6211 3.00098l-55.4199 32
c-6.83301 3.78223 -12.3789 13.1895 -12.3789 20.999c0 13.248 10.752 24 24 24c3.68066 0 9.22559 -1.54004 12.3789 -3.43848zM107.08 160.78c2.99316 1.65625 8.19922 3.00098 11.6211 3.00098c13.248 0 24 -10.752 24 -24
c0 -7.4873 -5.20605 -16.6992 -11.6211 -20.5615l-55.4199 -32c-3.15332 -1.89844 -8.69922 -3.43848 -12.3789 -3.43848c-13.248 0 -24 10.752 -24 24c0 7.80957 5.5459 17.2168 12.3789 20.999zM520.94 348c-13.2441 0.00488281 -23.9922 10.7568 -23.9922 24
c0 7.64551 5.37207 16.9551 11.9922 20.7803l55.4199 32c2.99316 1.65625 8.19922 3.00098 11.6201 3.00098c13.248 0 24 -10.752 24 -24c0 -7.4873 -5.20605 -16.6992 -11.6201 -20.5615l-55.4199 -32c-3.06055 -1.77734 -8.41602 -3.21973 -11.9551 -3.21973h-0.0449219z
"/>
			<glyph glyph-name="dog-primary" unicode="&#xf6d3;" horiz-adv-x="576"
				   d="M128 224h170.05l149.95 -53.5498v-218.45c0 -8.83203 -7.16797 -16 -16 -16h-64c-8.83203 0 -16 7.16797 -16 16v112h-160v-112c0 -8.83203 -7.16797 -16 -16 -16h-64c-8.83203 0 -16 7.16797 -16 16v213.9c-37.1699 13.25 -64 48.4395 -64 90.0996
c0 17.6641 14.3359 32 32 32s32 -14.3359 32 -32s14.3359 -32 32 -32zM528 352c8.83203 0 16 -7.16797 16 -16v-32c0 -35.3281 -28.6719 -64 -64 -64h-32v-35.5801l-128 45.71v149.87c0 14.2197 17.2305 21.3604 27.3203 11.2803l27.2793 -27.2803h53.6201
c10.917 -0.000976562 23.7383 -7.92578 28.6201 -17.6904l7.16016 -14.3096h64zM416 320c8.83203 0 16 7.16797 16 16s-7.16797 16 -16 16s-16 -7.16797 -16 -16s7.16797 -16 16 -16z"/>
			<glyph glyph-name="dog-leashed-primary" unicode="&#xf6d4;" horiz-adv-x="576"
				   d="M96 256c0 -17.6641 14.3359 -32 32 -32h144v-160h-80v-112c0 -8.83203 -7.16797 -16 -16 -16h-64c-8.83203 0 -16 7.16797 -16 16v213.9c-37.1699 13.25 -64 48.4395 -64 90.0996c0 17.6641 14.3359 32 32 32s32 -14.3359 32 -32zM320 64v152.16l128 -45.71v-218.45
c0 -8.83203 -7.16797 -16 -16 -16h-64c-8.83203 0 -16 7.16797 -16 16v112h-32zM528 352c8.83203 0 16 -7.16797 16 -16v-32c0 -35.3281 -28.6719 -64 -64 -64h-32v-35.5801l-128 51.5801v144c0 14.2197 17.2305 21.3604 27.3203 11.2803l27.2793 -27.2803h53.6201
c10.917 -0.000976562 23.7383 -7.92578 28.6201 -17.6904l7.16016 -14.3096h64zM416 320c8.83203 0 16 7.16797 16 16s-7.16797 16 -16 16s-16 -7.16797 -16 -16s7.16797 -16 16 -16z"/>
			<glyph glyph-name="meteor-primary" unicode="&#xf753;"
				   d="M191.971 255.996c70.6426 0 127.98 -57.333 127.98 -127.976v-0.0224609c0 -70.6553 -57.3438 -127.998 -127.999 -127.998c-70.6543 0 -127.998 57.3428 -127.998 127.998s57.3438 127.998 127.998 127.998h0.0185547zM159.976 127.998
c17.6416 0 31.9951 14.3174 31.9951 31.959v0.0400391c0 17.6641 -14.3359 32 -32 32c-17.6631 0 -31.999 -14.3359 -31.999 -32c0 -17.6631 14.3359 -31.999 31.999 -31.999h0.00488281zM207.968 63.999c8.80371 0.0283203 15.9707 7.19629 15.998 15.999
c0 8.83203 -7.16797 16 -16 16s-16 -7.16797 -16 -16c0 -8.83105 7.16797 -15.999 16 -15.999h0.00195312z"/>
			<glyph glyph-name="stars-primary" unicode="&#xf762;"
				   d="M364.294 180.707c18.7969 -2.70312 26.4072 -25.9053 12.7969 -39.2012l-75.8916 -73.9941l17.8906 -104.587c0.182617 -1.0625 0.331055 -2.80176 0.331055 -3.87988c0 -12.6709 -10.2832 -22.9541 -22.9541 -22.9541c-3.125 0 -7.90723 1.17969 -10.6738 2.63281
l-93.7988 49.3877l-93.7988 -49.3877c-16.6104 -8.90527 -36.501 5.29688 -33.2979 24.2012l18 104.587l-75.9072 73.9941c-13.7031 13.2959 -6.09375 36.498 12.7031 39.2012l104.799 15.2949l46.9072 95.1963c8.5 17.2021 32.7979 16.999 41.1885 0l46.9072 -95.1963z"/>
			<glyph glyph-name="satellite-primary" unicode="&#xf7bf;"
				   d="M470.184 311.182l-199.522 -199.478c9.40918 -20.7197 17.0459 -56.0059 17.0459 -78.7627c0 -26.3105 -10.0557 -66.5 -22.4463 -89.71c-4.50098 -8.50098 -16.4023 -9.60156 -23.2031 -2.80078l-237.627 237.532c-6.80078 6.80176 -5.7002 18.5928 2.80078 23.1934
c23.2178 12.3887 63.4189 22.4434 89.7354 22.4434c22.7617 0 58.0566 -7.63477 78.7832 -17.042l199.423 199.616c5.43555 5.41992 16.0771 9.81738 23.7529 9.81738s18.3164 -4.39746 23.7529 -9.81738l47.5049 -47.4961
c5.42285 -5.43262 9.82422 -16.0723 9.82422 -23.748c0 -7.67676 -4.40137 -18.3154 -9.82422 -23.748z"/>
			<glyph glyph-name="satellite-dish-primary" unicode="&#xf7c0;"
				   d="M302.449 -39.5967c-77.7119 -41.8008 -176.728 -29.9004 -242.337 35.7021c-65.6104 65.6016 -77.5117 164.506 -35.7061 242.309c4.90137 9.10059 17.7031 10.3008 25.0039 3l256.039 -256.01c7.40137 -7.2998 6.20117 -20.1006 -3 -25.001z"/>
			<glyph glyph-name="user-nurse-primary" unicode="&#xf82f;" horiz-adv-x="448"
				   d="M144 288h-48v94.1797c0 12.2393 9.30078 25.6611 20.7598 29.96l84.7705 31.79c5.99707 2.24902 16.0645 4.07422 22.4697 4.07422s16.4727 -1.8252 22.4697 -4.07422l84.7705 -31.75c11.459 -4.29883 20.7598 -17.7217 20.7598 -29.9609v-0.0390625v-94.1797h-208z
M184 376.33v-16.6602c0 -2.75977 2.24023 -5 5 -5h21.6699v-21.6699c0 -2.75977 2.24023 -5 5 -5h16.6602c2.75977 0 5 2.24023 5 5v21.6699h21.6699c2.75977 0 5 2.24023 5 5v16.6602c0 2.75977 -2.24023 5 -5 5h-21.6699v21.6699c0 2.75977 -2.24023 5 -5 5h-16.6602
c-2.75977 0 -5 -2.24023 -5 -5v-21.6699h-21.6699c-2.75977 0 -5 -2.24023 -5 -5zM319.41 128c71.4902 -3.09961 128.59 -61.5996 128.59 -133.79c0 -32.1318 -26.0781 -58.21 -58.21 -58.21h-331.58c-32.1318 0 -58.21 26.0781 -58.21 58.21
c0 72.1904 57.0996 130.69 128.59 133.79l95.4102 -95.3896z"/>
			<glyph glyph-name="flux-capacitor-primary" unicode="&#xf8ba;"
				   d="M385.143 282.286l-101.714 -101.715v-98.2852c0 -15.1406 -12.2881 -27.4287 -27.4287 -27.4287s-27.4287 12.2881 -27.4287 27.4287v98.3535l-101.714 101.715c-4.42871 4.43652 -8.02344 13.125 -8.02344 19.3945c0 15.1533 12.2979 27.4512 27.4521 27.4512
c6.28418 0 14.9883 -3.60938 19.4277 -8.05762v0l90.2861 -90.2852l90.2861 90.2852c4.44141 4.44238 13.1455 8.04785 19.4277 8.04785c15.167 0 27.4766 -12.3096 27.4766 -27.4766c0 -6.28223 -3.60547 -14.9863 -8.04785 -19.4277z"/>
			<glyph glyph-name="piano-primary" unicode="&#xf8d4;"
				   d="M512 120.45v-56.4502h-80v-40c0 -4.41602 -3.58398 -8 -8 -8h-16c-4.41602 0 -8 3.58398 -8 8v40h-32v-40c0 -4.41602 -3.58398 -8 -8 -8h-16c-4.41602 0 -8 3.58398 -8 8v40h-96v-40c0 -4.41602 -3.58398 -8 -8 -8h-16c-4.41602 0 -8 3.58398 -8 8v40h-32v-40
c0 -4.41602 -3.58398 -8 -8 -8h-16c-4.41602 0 -8 3.58398 -8 8v40h-32v-40c0 -4.41602 -3.58398 -8 -8 -8h-16c-4.41602 0 -8 3.58398 -8 8v40h-80v199.55c0 101.816 82.6338 184.45 184.45 184.45h15.0996c101.816 0 184.45 -82.6338 184.45 -184.45v0
c0.000976562 -21.833 15.8516 -47.4766 35.3799 -57.2402l57.2402 -28.6191c19.5283 -9.76367 35.3789 -35.4072 35.3799 -57.2402z"/>
			<glyph glyph-name="air-conditioner-primary" unicode="&#xf8f4;" horiz-adv-x="576"
				   d="M544 448c17.6641 0 32 -14.3359 32 -32v-160c0 -17.6641 -14.3359 -32 -32 -32h-512c-17.6641 0 -32 14.3359 -32 32v160c0 17.6641 14.3359 32 32 32h512zM512 288v32h-448v-32h448z"/>
			<glyph glyph-name="alien-primary" unicode="&#xf8f5;" horiz-adv-x="448"
				   d="M112 224c44.1592 0 80 -35.8398 80 -79.999v-0.000976562c0 -8.83203 -7.16797 -16 -16 -16h-32c-44.1602 0 -80 35.8398 -80 80v0c0 8.83203 7.16797 16 16 16v0h32zM368 224c8.83203 0 16 -7.16797 16 -16v0c0 -44.1602 -35.8398 -80 -80 -80h-32
c-8.83203 0 -16 7.16797 -16 16v0.000976562c0 44.1592 35.8398 79.999 79.999 79.999h0.000976562h32z"/>
			<glyph glyph-name="alien-monster-primary" unicode="&#xf8f6;" horiz-adv-x="576"
				   d="M160 128v96h64v-96h-64zM352 224h64v-96h-64v96z"/>
			<glyph glyph-name="bed-alt-primary" unicode="&#xf8f7;"
				   d="M0 96h512v-112c0 -8.83203 -7.16797 -16 -16 -16h-32c-8.83203 0 -16 7.16797 -16 16v48h-384v-48c0 -8.83203 -7.16797 -16 -16 -16h-32c-8.83203 0 -16 7.16797 -16 16v112zM64 224c-9.46387 -0.173828 -23.7998 -4.15234 -32 -8.87988v0v168.88
c0 17.6641 14.3359 32 32 32h384c17.6641 0 32 -14.3359 32 -32v-168.88v0c-8.19922 4.73145 -22.5352 8.70996 -32 8.87988v64c0 17.6641 -14.3359 32 -32 32h-112c-17.6641 0 -32 -14.3359 -32 -32v-64h-32v64c0 17.6641 -14.3359 32 -32 32h-112
c-17.6641 0 -32 -14.3359 -32 -32v-64z"/>
			<glyph glyph-name="bed-bunk-primary" unicode="&#xf8f8;" horiz-adv-x="576"
				   d="M64 320h512v-368c0 -8.83203 -7.16797 -16 -16 -16h-32c-8.83203 0 -16 7.16797 -16 16v48h-448v-48c0 -8.83203 -7.16797 -16 -16 -16h-32c-8.83203 0 -16 7.16797 -16 16v480c0 8.83203 7.16797 16 16 16h32c8.83203 0 16 -7.16797 16 -16v-112zM512 64v192h-448v-192
h448z"/>
			<glyph glyph-name="bed-empty-primary" unicode="&#xf8f9;" horiz-adv-x="640"
				   d="M640 160v-144c0 -8.83203 -7.16797 -16 -16 -16h-32c-8.83203 0 -16 7.16797 -16 16v48h-512v-48c0 -8.83203 -7.16797 -16 -16 -16h-32c-8.83203 0 -16 7.16797 -16 16v352c0 8.83203 7.16797 16 16 16h32c8.83203 0 16 -7.16797 16 -16v-208h576z"/>
			<glyph glyph-name="bell-on-primary" unicode="&#xf8fa;" horiz-adv-x="640"
				   d="M88 280c13.248 0 24 -10.752 24 -24s-10.752 -24 -24 -24h-64c-13.248 0 -24 10.752 -24 24s10.752 24 24 24h64zM131.08 392.78c6.83301 -3.78223 12.3789 -13.1895 12.3789 -20.999c0 -13.248 -10.752 -24 -24 -24c-3.68066 0 -9.22559 1.54004 -12.3789 3.43848
l-55.4199 32c-6.83301 3.78223 -12.3789 13.1895 -12.3789 20.999c0 13.248 10.752 24 24 24c3.67969 0 9.22559 -1.54004 12.3789 -3.43848zM588.34 383.22l-55.4199 -32c-3.15332 -1.89844 -8.69824 -3.43848 -12.3789 -3.43848c-13.248 0 -24 10.752 -24 24
c0 7.80957 5.5459 17.2168 12.3789 20.999l55.4199 32c2.99316 1.65625 8.2002 3.00098 11.6211 3.00098c13.248 0 24 -10.752 24 -24c0 -7.4873 -5.20605 -16.6992 -11.6211 -20.5615zM320 -64c-35.3281 0 -64 28.6719 -64 64h128c0 -35.3281 -28.6719 -64 -64 -64z
M616 280c13.248 0 24 -10.752 24 -24s-10.752 -24 -24 -24h-64c-13.248 0 -24 10.752 -24 24s10.752 24 24 24h64z"/>
			<glyph glyph-name="blinds-primary" unicode="&#xf8fb;"
				   d="M512 432v-32c0 -8.83203 -7.16797 -16 -16 -16h-368v-162.94c17.6641 -6.24512 32 -26.5186 32 -45.2549c0 -26.4951 -21.5039 -48 -48 -48s-48 21.5049 -48 48c0 18.7363 14.3359 39.0098 32 45.2549v162.94h-80c-8.83203 0 -16 7.16797 -16 16v32
c0 8.83203 7.16797 16 16 16h480c8.83203 0 16 -7.16797 16 -16z"/>
			<glyph glyph-name="blinds-open-primary" unicode="&#xf8fc;"
				   d="M512 432v-32c0 -8.83203 -7.16797 -16 -16 -16h-368v-146.94c17.6641 -6.24512 32 -26.5186 32 -45.2549c0 -26.4951 -21.5039 -48 -48 -48s-48 21.5049 -48 48c0 18.7363 14.3359 39.0098 32 45.2549v146.94h-80c-8.83203 0 -16 7.16797 -16 16v32
c0 8.83203 7.16797 16 16 16h480c8.83203 0 16 -7.16797 16 -16z"/>
			<glyph glyph-name="blinds-raised-primary" unicode="&#xf8fd;"
				   d="M512 431.91v-32.1904v-0.0898438c0 -8.83203 -7.16797 -16 -16 -16v0h-368v-354c17.6641 -6.24512 32 -26.5195 32 -45.2549c0 -26.4961 -21.5039 -48 -48 -48s-48 21.5039 -48 48c0 18.7354 14.3359 39.0098 32 45.2549v354h-80v0c-8.83203 0 -16 7.16797 -16 16
v0.0898438v32.1904v0.0898438c0 8.83203 7.16797 16 16 16v0h480v0c8.83203 0 16 -7.16797 16 -16v-0.0898438z"/>
			<glyph glyph-name="camera-home-primary" unicode="&#xf8fe;" horiz-adv-x="448"
				   d="M384 448c35.3281 0 64 -28.6719 64 -64v-288c0 -35.3281 -28.6719 -64 -64 -64h-72.7197l60.1396 -34.8301c6.92969 -4.32031 12.5801 -14.4502 12.5801 -22.6201v-11.8799c-0.00585938 -14.6943 -11.9355 -26.6426 -26.6299 -26.6699h-266.67
c-14.7168 0.00585938 -26.665 11.9541 -26.6699 26.6699v11.9004c0 8.14941 5.59961 18.2695 12.5 22.5996l60.1797 34.8301h-72.71c-35.3281 0 -64 28.6719 -64 64v288c0 35.3281 28.6719 64 64 64h320zM224 96c79.4746 0.0136719 143.975 64.5254 143.975 144
c0 79.4883 -64.5117 144 -144 144c-79.4873 0 -144 -64.5117 -144 -144c0 -79.4746 64.501 -143.986 143.976 -144h0.0498047z"/>
			<glyph glyph-name="caravan-primary" unicode="&#xf8ff;" horiz-adv-x="640"
				   d="M624 128c8.83203 0 16 -7.16797 16 -16v-32c0 -8.83203 -7.16797 -16 -16 -16h-312.81c-4.19043 62.4697 -55.6602 112 -119.19 112s-115 -49.5303 -119.19 -112h-8.80957c-35.3281 0 -64 28.6719 -64 64v256c0 35.3281 28.6719 64 64 64h352
c88.3203 0 160 -71.6797 160 -160v-160h48zM256 256v64c0 17.6641 -14.3359 32 -32 32h-128c-17.6641 0 -32 -14.3359 -32 -32v-64c0 -17.6641 14.3359 -32 32 -32h128c17.6641 0 32 14.3359 32 32zM448 128v192c0 17.6641 -14.3359 32 -32 32h-64
c-17.6641 0 -32 -14.3359 -32 -32v-155.71c7.7373 -9.19434 18.2295 -25.4521 23.4199 -36.29h104.58z"/>
			<glyph glyph-name="caravan-alt-primary" unicode="&#xf900;" horiz-adv-x="640"
				   d="M624 128c8.83203 0 16 -7.16797 16 -16v-32c0 -8.83203 -7.16797 -16 -16 -16h-312.81c-4.19043 62.4697 -55.6602 112 -119.19 112s-115 -49.5303 -119.19 -112h-8.80957c-35.3281 0 -64 28.6719 -64 64v256c0 35.3281 28.6719 64 64 64h352
c88.3203 0 160 -71.6797 160 -160v-160h48zM256 256v64c0 17.6641 -14.3359 32 -32 32h-128c-17.6641 0 -32 -14.3359 -32 -32v-64c0 -17.6641 14.3359 -32 32 -32h128c17.6641 0 32 14.3359 32 32zM448 256v64c0 17.6641 -14.3359 32 -32 32h-64
c-17.6641 0 -32 -14.3359 -32 -32v-64c0 -17.6641 14.3359 -32 32 -32h64c17.6641 0 32 14.3359 32 32z"/>
			<glyph glyph-name="cat-space-primary" unicode="&#xf901;" horiz-adv-x="640"
				   d="M291.891 253.697c15.7305 -71.8418 79.5469 -125.697 156.109 -125.697c8.92188 0.000976562 23.2578 1.44629 32 3.22461v-179.225v-0.00878906c0 -8.82715 -7.16406 -15.9912 -15.9912 -15.9912h-0.00878906h-32h-0.00878906
c-8.82715 0 -15.9912 7.16406 -15.9912 15.9912v0.00878906v144l-128 -96h32c17.6631 -0.000976562 31.999 -14.3369 32 -32v-16v-0.00878906c0 -8.82715 -7.16406 -15.9912 -15.9912 -15.9912h-0.00878906h-176c-35.293 0.0351562 -63.9648 28.707 -64 64v256
c-0.0224609 17.6406 -14.3594 31.9775 -32 32c-17.6641 0 -32 14.3359 -32 32s14.3359 32 32 32c52.9346 -0.0576172 95.9424 -43.0654 96 -96v-85.9531c40.1016 60.3809 96.0547 78.2969 131.891 83.6387v0.0117188zM480 336l64 64v-128c0 -52.9922 -43.0078 -96 -96 -96
s-96 43.0078 -96 96v128l64 -64h64zM408 256c8.82715 0 16 7.16406 16 15.9912v0.00878906c0 8.83203 -7.16797 16 -16 16s-16 -7.16797 -16 -16s7.16797 -16 16 -16zM488 256c8.82715 0 16 7.16406 16 15.9912v0.00878906c0 8.83203 -7.16797 16 -16 16
s-16 -7.16797 -16 -16s7.16797 -16 16 -16z"/>
			<glyph glyph-name="coffee-pot-primary" unicode="&#xf902;"
				   d="M130.55 128h314.95c1.25293 -6.74902 2.37305 -17.7969 2.5 -24.6602c0 -28.6396 -7.62988 -47.0098 -29.9502 -71.3398h-260.05c-22.3799 24.3799 -30 42.7197 -30 71.3799c0.125977 6.85547 1.26855 17.8848 2.5498 24.6201zM424.06 276.14l-271.859 -0.629883
l-30.6006 76.4902h-17.5996c-22.0801 0 -40 -17.9199 -40 -40v-72c0 -8.83203 -7.16797 -16 -16 -16h-32c-8.83203 0 -16 7.16797 -16 16v88c0 48.5762 39.4238 88 88 88h392z"/>
			<glyph glyph-name="comet-primary" unicode="&#xf903;"
				   d="M77.1133 173.78l69.8525 10.1973l31.2646 63.4678c2.31934 4.7207 8.46973 8.55176 13.7285 8.55176s11.4092 -3.83105 13.7285 -8.55176l31.2646 -63.4678l69.8525 -10.1973c7.24512 -1.05957 13.126 -7.8623 13.126 -15.1846
c0 -3.55469 -2.05957 -8.46094 -4.5957 -10.9512l-50.5869 -49.334l11.9287 -69.7275c0.121094 -0.708984 0.219727 -1.86914 0.219727 -2.58887c0 -8.44629 -6.85449 -15.3018 -15.3018 -15.3018c-2.08301 0 -5.27051 0.786133 -7.11426 1.75391l-62.5215 32.9277
l-62.5215 -32.9277c-11.0732 -5.9375 -24.3281 3.53125 -22.1963 16.1367l11.998 69.7275l-50.5938 49.334c-2.56152 2.48926 -4.64062 7.40918 -4.64062 10.9814c0 7.3125 5.87207 14.1016 13.1084 15.1543z"/>
			<glyph glyph-name="fan-table-primary" unicode="&#xf904;" horiz-adv-x="448"
				   d="M119.67 112.7c-7.08984 4.08008 -14.5703 16.8594 -5.03027 28.2002l67.4707 82c-57.1699 20.3193 -69.1807 77.3301 -59.6406 113c5.53516 20.8965 25.2471 46.585 44 57.3398v0c13 7.38965 24.2207 -2.35059 27 -9.73047l37.0801 -99
c14.585 12.3896 41.9531 22.4453 61.0898 22.4453c52.0869 0 94.3604 -42.2734 94.3604 -94.3604v-0.0849609c-0.0078125 -10.3916 -8.44824 -18.8252 -18.8398 -18.8252c-0.858398 0 -2.24316 0.114258 -3.08984 0.255859l-104.7 17.4492
c0.927734 -4.82324 1.68066 -12.7256 1.68066 -17.6377c0 -13.7363 -5.54688 -34.5557 -12.3809 -46.4717c-15.0557 -26.0635 -51.7031 -47.2158 -81.8018 -47.2158c-13.96 0 -35.1055 5.66113 -47.1982 12.6357zM224 255.5c-8.83203 0 -16 -7.16797 -16 -16
s7.16797 -16 16 -16s16 7.16797 16 16s-7.16797 16 -16 16zM320 -0.5c28.4199 0 55 -18.5 63.2998 -44.1602c3.21973 -9.83984 -5.17969 -19.8398 -15.5596 -19.8398h-287.48c-10.3896 0 -18.7793 9.95996 -15.5596 19.8398
c8.34961 25.6299 34.8799 44.1602 63.2998 44.1602h192z"/>
			<glyph glyph-name="faucet-primary" unicode="&#xf905;"
				   d="M384 335.11v-30.2207c0 -10 -8.16992 -17.7998 -17.5898 -16.7998l-142.41 15.0303l-142.41 -15c-9.41992 -1 -17.5898 6.80957 -17.5898 16.7998v30.1904c0 10 8.16992 17.7998 17.5898 16.7998l142.41 -15l142.41 15c9.41992 1 17.5898 -6.81055 17.5898 -16.7998z"/>
			<glyph glyph-name="faucet-drip-primary" unicode="&#xf906;"
				   d="M448 32c0 0 32 -46.3301 32 -64c0 -17.6641 -14.3359 -32 -32 -32s-32 14.3359 -32 32c0 17.6699 32 64 32 64zM366.41 415.91c9.41992 1 17.5898 -6.81055 17.5898 -16.7998v-30.1904c0 -9.99023 -8.16992 -17.7998 -17.5898 -16.7998l-142.41 15l-142.41 -15.0303
c-9.41992 -1 -17.5898 6.7998 -17.5898 16.7998v30.2207c0 9.98926 8.16992 17.7998 17.5898 16.7695l142.41 -15z"/>
			<glyph glyph-name="galaxy-primary" unicode="&#xf908;"
				   d="M506.576 173.896c2.9873 -12.4639 5.41113 -32.9824 5.41113 -45.7988c0 -5.3418 -0.425781 -13.9893 -0.950195 -19.3047c-1.45312 -14.4102 -21.1758 -17.4082 -26.8711 -4.09375c-17.416 40.6318 -67.0293 78.9414 -110.745 85.5137
c5.80566 -16.9219 10.5166 -45.1758 10.5166 -63.0654c0 -10.7998 -1.74707 -28.1543 -3.89941 -38.7373c-14.3047 -71.6484 -71.0381 -130.191 -142.14 -146.988c-12.4639 -2.98633 -32.9814 -5.40918 -45.7979 -5.40918c-5.3418 0 -13.9912 0.425781 -19.3066 0.950195
c-14.4102 1.45117 -17.4102 21.1738 -4.09375 26.8691c40.6318 17.415 78.9404 67.0283 85.5107 110.744c-16.9219 -5.80469 -45.1758 -10.5156 -63.0664 -10.5156c-10.7988 0 -28.1514 1.74609 -38.7334 3.89844c-71.6484 14.3066 -130.19 71.0391 -146.987 142.145
c-2.9873 12.4639 -5.41113 32.9824 -5.41113 45.7988c0 5.34082 0.425781 13.9893 0.950195 19.3047c1.45312 14.4102 21.1758 17.4082 26.8711 4.09375c17.416 -40.6318 67.0293 -78.9414 110.745 -85.5137c-5.80566 16.9219 -10.5166 45.1758 -10.5166 63.0654
c0 10.7998 1.74707 28.1543 3.89941 38.7373c14.3047 71.6484 71.0381 130.191 142.14 146.988c12.4639 2.98633 32.9814 5.40918 45.7979 5.40918c5.3418 0 13.9912 -0.425781 19.3066 -0.950195c14.4102 -1.45117 17.4102 -21.1738 4.09375 -26.8691
c-40.6318 -17.415 -78.9404 -67.0283 -85.5107 -110.744c16.9219 5.80469 45.1758 10.5156 63.0664 10.5156c10.7988 0 28.1514 -1.74609 38.7334 -3.89844c71.6484 -14.3066 130.19 -71.0391 146.987 -142.145zM256 144c26.4951 0.000976562 47.999 21.5049 48 48
c0 26.4961 -21.5039 48 -48 48s-48 -21.5039 -48 -48s21.5039 -48 48 -48v0z"/>
			<glyph glyph-name="garage-primary" unicode="&#xf909;" horiz-adv-x="640"
				   d="M640 286.72v-334.72c0 -8.83203 -7.16797 -16 -16 -16h-64c-8.83203 0 -16 7.16797 -16 16v272c0 17.5898 -14.5898 32 -32.5898 32h-382.82c-18 0 -32.5898 -14.4102 -32.5898 -32v-272c0 -8.83203 -7.16797 -16 -16 -16h-64c-8.83203 0 -16 7.16797 -16 16v334.72
c0.0380859 17.6201 13.2539 37.458 29.5 44.2803l272 113.3c4.93555 1.87207 13.2236 3.5293 18.5 3.7002c5.26367 -0.166016 13.5332 -1.81055 18.46 -3.66992l272.04 -113.33c16.2461 -6.82227 29.4619 -26.6602 29.5 -44.2803z"/>
			<glyph glyph-name="garage-car-primary" unicode="&#xf90a;" horiz-adv-x="640"
				   d="M610.5 331c16.2461 -6.82227 29.4619 -26.6602 29.5 -44.2803v-334.72c0 -8.83203 -7.16797 -16 -16 -16h-64c-8.83203 0 -16 7.16797 -16 16v272c0 17.5898 -14.5898 32 -32.5898 32h-382.82c-18 0 -32.5898 -14.4102 -32.5898 -32v-272
c0 -8.83203 -7.16797 -16 -16 -16h-64c-8.83203 0 -16 7.16797 -16 16v334.72c0.0380859 17.6201 13.2539 37.458 29.5 44.2803l272 113.33c4.9375 1.86328 13.2256 3.50781 18.5 3.66992c5.24902 -0.170898 13.4971 -1.81445 18.4102 -3.66992zM465.5 92.5801
c16.834 -6.55859 30.4814 -26.5137 30.5 -44.5801v-32c0 -11.71 -6.61035 -21.5195 -16 -27.0996v-28.9004c0 -13.248 -10.752 -24 -24 -24h-32c-13.248 0 -24 10.752 -24 24v24h-160v-24c0 -13.248 -10.752 -24 -24 -24h-32c-13.248 0 -24 10.752 -24 24v28.9004
c-9.38965 5.58008 -16 15.3896 -16 27.0996v32c0.0185547 18.0664 13.6963 38.0518 30.5303 44.6104l15.75 63c7.20312 28.9189 37.2383 52.3896 67.041 52.3896h0.0683594h125.221h0.0908203c29.8164 0 59.8545 -23.4844 67.0488 -52.4199zM236.84 143.95
l-11.9795 -47.9502h190.3l-12 47.9502c-2.20117 8.85938 -11.3975 16.0498 -20.5264 16.0498h-0.0234375h-125.221h-0.0234375c-9.12891 0 -18.3252 -7.19043 -20.5264 -16.0498zM208 16.1504c14.4004 0 36 -2.38086 36 11.9697c0 14.3496 -21.5996 35.8799 -36 35.8799
s-24 -9.57031 -24 -23.9297c0 -14.3604 9.59961 -23.9199 24 -23.9199zM432 16.1504c14.4004 0 24 9.56934 24 23.9199c0 14.3496 -9.59961 23.9297 -24 23.9297s-36 -21.46 -36 -35.8496c0 -14.3906 21.5996 -12 36 -12z"/>
			<glyph glyph-name="garage-open-primary" unicode="&#xf90b;" horiz-adv-x="640"
				   d="M610.5 331c16.2461 -6.82227 29.4619 -26.6602 29.5 -44.2803v-334.72c0 -8.83203 -7.16797 -16 -16 -16h-64c-8.83203 0 -16 7.16797 -16 16v272c0 17.5898 -14.5898 32 -32.5898 32h-382.82c-18 0 -32.5898 -14.4102 -32.5898 -32v-272
c0 -8.83203 -7.16797 -16 -16 -16h-64c-8.83203 0 -16 7.16797 -16 16v334.72c0.0380859 17.6201 13.2539 37.458 29.5 44.2803l272 113.33c4.9375 1.86328 13.2256 3.50781 18.5 3.66992c5.24902 -0.170898 13.4971 -1.81445 18.4102 -3.66992zM465.5 92.5801
c16.834 -6.55859 30.4814 -26.5137 30.5 -44.5801v-32c0 -11.71 -6.61035 -21.5195 -16 -27.0996v-28.9004c0 -13.248 -10.752 -24 -24 -24h-32c-13.248 0 -24 10.752 -24 24v24h-160v-24c0 -13.248 -10.752 -24 -24 -24h-32c-13.248 0 -24 10.752 -24 24v28.9004
c-9.38965 5.58008 -16 15.3896 -16 27.0996v32c0.0185547 18.0664 13.6963 38.0518 30.5303 44.6104l8.84961 35.3896h49.4805l-8 -32h190.279l-8 32h49.4805zM208 16.1504c14.4004 0 36 -2.38086 36 11.9697c0 14.3496 -21.5996 35.8799 -36 35.8799
s-24 -9.57031 -24 -23.9297c0 -14.3604 9.59961 -23.9199 24 -23.9199zM432 16.1504c14.4004 0 24 9.56934 24 23.9199c0 14.3496 -9.59961 23.9297 -24 23.9297s-36 -21.46 -36 -35.8496c0 -14.3906 21.5996 -12 36 -12z"/>
			<glyph glyph-name="heat-primary" unicode="&#xf90c;" horiz-adv-x="448"
				   d="M64 295.75v-0.287109c0 -32.666 17.7314 -78.8877 39.5801 -103.173c31.1436 -34.4453 56.4199 -100.09 56.4199 -146.526v-0.173828v-61.5898c0 -8.83203 -7.16797 -16 -16 -16h-32c-8.83203 0 -16 7.16797 -16 16v61.5898v0.357422
c0 32.625 -17.7051 78.793 -39.5195 103.053c-31.1777 34.4746 -56.4805 100.178 -56.4805 146.658v0.0917969v40.25c0 8.83203 7.16797 16 16 16h32c8.83203 0 16 -7.16797 16 -16v-40.25zM391.58 192.29c31.1436 -34.4453 56.4199 -100.09 56.4199 -146.526v-0.173828
v-61.5898c0 -8.83203 -7.16797 -16 -16 -16h-32c-8.83203 0 -16 7.16797 -16 16v61.5898v0.357422c0 32.625 -17.7051 78.793 -39.5195 103.053c-31.1777 34.4746 -56.4805 100.178 -56.4805 146.658v0.0917969v40.25c0 8.83203 7.16797 16 16 16h32
c8.83203 0 16 -7.16797 16 -16v-40.25v-0.287109c0 -32.666 17.7314 -78.8877 39.5801 -103.173z"/>
			<glyph glyph-name="house-primary" unicode="&#xf90d;" horiz-adv-x="576"
				   d="M571.9 189.13l-21.4102 -23.8096c-1.7998 -2 -12.46 -10.2305 -22.5898 -1.2207l-239.9 211.9l-239.88 -211.9c-9.2998 -8.36914 -19.8105 -1.89941 -22.5898 1.2002l-21.4102 23.7998c-8.37012 9.30078 -1.90039 19.8105 1.2002 22.6006l256 226
c6.26953 5.68945 18.25 10.2998 26.6797 10.2998s20.4404 -4.61035 26.7197 -10.2998l101.28 -89.3701v51.6699c0 8.83203 7.16797 16 16 16h64c8.83203 0 16 -7.16797 16 -16v-136.44l58.6904 -51.8291c3.09961 -2.79004 9.54004 -13.2705 1.20996 -22.6006z"/>
			<glyph glyph-name="house-day-primary" unicode="&#xf90e;" horiz-adv-x="640"
				   d="M635.23 155.58c2.62012 -2.34473 4.74707 -7.10254 4.74707 -10.6191c0 -2.97559 -1.59863 -7.2002 -3.56738 -9.43066l-18.79 -21.2803c-2.34961 -2.62207 -7.11426 -4.75 -10.6348 -4.75c-2.94629 0 -7.1416 1.56836 -9.36523 3.5l-21.6201 19.1504v-164.15
c0 -17.6641 -14.3359 -32 -32 -32h-288c-17.6641 0 -32 14.3359 -32 32v164.13l-21.5996 -19.1299c-2.21973 -1.95117 -6.4209 -3.53516 -9.37598 -3.53516c-3.55078 0 -8.33301 2.16602 -10.6748 4.83496l-18.79 21.2803
c-1.95898 2.21973 -3.54883 6.42383 -3.54883 9.38379c0 3.52441 2.14062 8.28027 4.7793 10.6162l211.8 187.5c5.54102 4.92285 16.0537 8.91797 23.4648 8.91797c7.41211 0 17.9248 -3.99512 23.4648 -8.91797l88.4805 -78.3701v39.29c0 8.83203 7.16797 16 16 16h32
c8.83203 0 16 -7.16797 16 -16v-96zM448 80v64c0 8.83203 -7.16797 16 -16 16h-64c-8.83203 0 -16 -7.16797 -16 -16v-64c0 -8.83203 7.16797 -16 16 -16h64c8.83203 0 16 7.16797 16 16z"/>
			<glyph glyph-name="house-leave-primary" unicode="&#xf90f;" horiz-adv-x="640"
				   d="M393.55 62.2598l20.75 51.4902c8.7002 -11.9004 -7.88965 6.59961 47.4004 -53.6904l-13.5 -33.79c-2.71289 -6.73047 -9.07422 -16.3623 -14.2002 -21.5l-59.4502 -59.3896c-5.09082 -4.75391 -14.875 -8.61133 -21.8398 -8.61133c-17.6641 0 -32 14.3359 -32 32
c0 6.9873 3.87988 16.7949 8.66016 21.8916l50 50.1094c5.17676 5.09766 11.5303 14.7256 14.1797 21.4902zM528 352c-26.4961 0 -48 21.5039 -48 48s21.5039 48 48 48s48 -21.5039 48 -48s-21.5039 -48 -48 -48zM622.42 202.94
c9.69043 -4.98828 17.5557 -17.8828 17.5557 -28.7812c0 -4.13184 -1.47168 -10.4971 -3.28516 -14.209c-4.78223 -9.75 -17.4766 -17.6621 -28.3359 -17.6621c-4.12598 0 -10.4668 1.50195 -14.1543 3.35156l-23.2998 11.8105c-12.9746 6.5918 -27.1768 23.168 -31.7002 37
l-5.5 16.4902l-17.2002 -68.6904l45.5 -49.7002c6.05371 -6.59473 12.7285 -18.9951 14.9004 -27.6797l22.1992 -89c0.526367 -2.10645 0.953125 -5.5791 0.953125 -7.75c0 -17.666 -14.3369 -32.0029 -32.0029 -32.0029c-13.7979 0 -27.708 10.8652 -31.0498 24.2529
l-18.2197 73.29c-2.18555 8.67773 -8.85156 21.0869 -14.8799 27.7002l-59.9004 65.3896c-9.27051 10.1543 -16.7949 29.5557 -16.7949 43.3057c0 4.32617 0.844727 11.2451 1.88477 15.4443l15.2002 60.6904l-26.7998 -10.79
c-6.16406 -2.52441 -13.5508 -9.42383 -16.4902 -15.4004l-6.75 -13.5898c-4.7793 -9.75195 -17.4707 -17.666 -28.3311 -17.666c-4.12695 0 -10.4707 1.50391 -14.1592 3.35547c-9.68555 4.93164 -17.5469 17.7549 -17.5469 28.624c0 4.15723 1.5 10.5527 3.34668 14.2764
l6.7002 13.6201c8.86621 17.9697 31.1318 38.667 49.7002 46.2002c37.4004 15.1094 57.2803 25.29 93.2803 25.1992c46.4902 -0.0898438 87.4902 -31.2891 102.189 -75.8994l9.7002 -29.3799z"/>
			<glyph glyph-name="house-night-primary" unicode="&#xf910;" horiz-adv-x="640"
				   d="M635.23 155.58c2.62012 -2.34473 4.74707 -7.10254 4.74707 -10.6191c0 -2.97559 -1.59863 -7.2002 -3.56738 -9.43066l-18.79 -21.2803c-2.34961 -2.62207 -7.11426 -4.75 -10.6348 -4.75c-2.94629 0 -7.1416 1.56836 -9.36523 3.5l-21.6201 19.1602v-164.16
c0 -17.6641 -14.3359 -32 -32 -32h-288c-17.6641 0 -32 14.3359 -32 32v164.13l-21.6396 -19.0801c-2.2207 -1.94727 -6.41895 -3.52832 -9.37207 -3.52832c-3.52637 0 -8.28809 2.14062 -10.6279 4.77832l-18.79 21.2803c-1.95996 2.21973 -3.5498 6.42383 -3.5498 9.38379
c0 3.52441 2.1416 8.28027 4.7793 10.6162l211.79 187.5c5.54102 4.92285 16.0537 8.91797 23.4648 8.91797c7.41211 0 17.9248 -3.99512 23.4648 -8.91797l88.4805 -78.3701v39.29c0 8.83203 7.16797 16 16 16h32c8.83203 0 16 -7.16797 16 -16v-96zM448 80v64
c-0.0273438 8.80469 -7.19531 15.9727 -16 16h-64c-8.83203 0 -16 -7.16797 -16 -16v-64c0 -8.83203 7.16797 -16 16 -16h64c8.80469 0.0273438 15.9727 7.19531 16 16z"/>
			<glyph glyph-name="house-return-primary" unicode="&#xf911;" horiz-adv-x="640"
				   d="M531 185.52c1.0459 -4.20801 1.89453 -11.1436 1.89453 -15.4805c0 -13.7568 -7.5332 -33.1641 -16.8145 -43.3193l-59.9004 -65.3896c-6.03223 -6.61133 -12.6982 -19.0205 -14.8799 -27.7002l-18.2998 -73.2803c-3.3418 -13.3867 -17.252 -24.252 -31.0498 -24.252
c-17.666 0 -32.0029 14.3369 -32.0029 32.002c0 2.17188 0.426758 5.64355 0.953125 7.75l22.1992 89c2.1709 8.6875 8.8457 21.0928 14.9004 27.6904l45.4297 49.6797l-17.1992 68.6904l-5.5 -16.4902c-4.52637 -13.8301 -18.7285 -30.4062 -31.7002 -37l-23.2998 -11.8096
c-3.6875 -1.84863 -10.0264 -3.34961 -14.1504 -3.34961c-10.8594 0 -23.5557 7.91113 -28.3398 17.6592c-1.8125 3.71094 -3.2832 10.0752 -3.2832 14.2051c0 10.9102 7.87695 23.8105 17.583 28.7949l23.29 11.7998l9.7002 29.3799
c14.7002 44.6006 55.7002 75.8008 102.189 75.8906c35.9902 0.0996094 55.8799 -10.0898 93.2803 -25.2002c18.5684 -7.53223 40.834 -28.2295 49.7002 -46.2002l6.7002 -13.5898c1.84668 -3.72363 3.34668 -10.1191 3.34668 -14.2764
c0 -10.8691 -7.86133 -23.6924 -17.5469 -28.624c-3.6875 -1.84961 -10.0293 -3.35156 -14.1553 -3.35156c-10.8584 0 -23.5527 7.91211 -28.335 17.6621l-6.70996 13.5898c-2.91699 5.96777 -10.2637 12.876 -16.4004 15.4199l-26.7998 10.79zM432 352
c-26.4961 0 -48 21.5039 -48 48s21.5039 48 48 48s48 -21.5039 48 -48s-21.5039 -48 -48 -48zM630.63 -9.33984c4.82422 -5.10645 8.74023 -14.9521 8.74023 -21.9766c0 -17.6641 -14.3359 -32 -32 -32c-7 0 -16.8203 3.8916 -21.9199 8.68652l-59.4004 59.3994
c-5.12598 5.13477 -11.4873 14.7617 -14.2002 21.4902l-13.5 33.79c55.29 60.2803 38.7002 41.79 47.4004 53.6904l20.7002 -51.4902c2.64941 -6.76465 9.00293 -16.3926 14.1797 -21.4902z"/>
			<glyph glyph-name="house-signal-primary" unicode="&#xf912;" horiz-adv-x="640"
				   d="M0 32c52.9922 0 96 -43.0078 96 -96h-96v96zM0 128c106 0 192 -86 192 -192h-63.9297c-0.0283203 70.667 -57.4033 128.042 -128.07 128.07v63.9297zM0 224c159.06 0 288 -128.94 288 -288h-63.9297c0 123.71 -100.36 224.07 -224.07 224.07v63.9297z"/>
			<glyph glyph-name="lamp-desk-primary" unicode="&#xf914;"
				   d="M320 0c28.4199 0 55 -18.5303 63.3096 -44.1602c3.20996 -9.83984 -5.17969 -19.8398 -15.5693 -19.8398h-351.48c-10.3799 0 -18.7793 10 -15.5596 19.8398c8.34961 25.6299 34.8799 44.1602 63.2998 44.1602h256zM494.41 384c15.6396 0 23.4697 -18.9004 12.4102 -30
l-220.801 -220.82c-11.0996 -11.0596 -30 -3.22949 -30 12.4004v147.9l-0.279297 0.279297l-45 45c-9.98535 10.2812 -18.0889 30.2568 -18.0889 44.5889c0 35.3281 28.6719 64 64 64c14.332 0 34.3076 -8.10352 44.5889 -18.0889l45.2598 -45.2598h147.91z"/>
			<glyph glyph-name="lamp-floor-primary" unicode="&#xf915;" horiz-adv-x="384"
				   d="M256 0c28.4199 0 55 -18.5303 63.2998 -44.1602c3.21973 -9.83984 -5.17969 -19.8398 -15.5596 -19.8398h-223.48c-10.3799 0 -18.7793 10 -15.5596 19.8398c8.34961 25.6299 34.8799 44.1602 63.2998 44.1602h128zM381.38 268.61
c1.42969 -3.33398 2.58984 -8.9834 2.58984 -12.6104c0 -17.6475 -14.3223 -31.9834 -31.9697 -32h-320c-17.6475 0.0166016 -31.9697 14.3525 -31.9697 32c0 3.62695 1.16016 9.27637 2.58984 12.6104l68.5801 160c4.58887 10.7031 17.7646 19.3896 29.4102 19.3896
h182.779c11.6455 0 24.8213 -8.68652 29.4102 -19.3896z"/>
			<glyph glyph-name="light-ceiling-primary" unicode="&#xf916;"
				   d="M256.28 288.17c128.239 0 238.04 -94.4102 255.439 -219.61c0.166992 -1.20508 0.302734 -3.17188 0.302734 -4.38965c0 -17.6641 -14.3359 -32 -32 -32h-0.0224609l-448 -0.169922v0c-17.6611 0.00292969 -31.9951 14.3389 -31.9951 32
c0 1.2627 0.145508 3.30078 0.325195 4.5498c17.9502 125.2 128.02 219.62 255.95 219.62z"/>
			<glyph glyph-name="light-switch-primary" unicode="&#xf917;" horiz-adv-x="384"
				   d="M320 448c35.3281 0 64 -28.6719 64 -64v-384c0 -35.3281 -28.6719 -64 -64 -64h-256c-35.3281 0 -64 28.6719 -64 64v384c0 35.3281 28.6719 64 64 64h256zM192 416c-8.83203 0 -16 -7.16797 -16 -16s7.16797 -16 16 -16s16 7.16797 16 16s-7.16797 16 -16 16zM192 -32
c8.83203 0 16 7.16797 16 16s-7.16797 16 -16 16s-16 -7.16797 -16 -16s7.16797 -16 16 -16zM288 192v112c0 26.4961 -21.5039 48 -48 48h-96c-26.4961 0 -48 -21.5039 -48 -48v-224c0 -26.4961 21.5039 -48 48 -48h96c26.4961 0 48 21.5039 48 48v112z"/>
			<glyph glyph-name="light-switch-off-primary" unicode="&#xf918;" horiz-adv-x="384"
				   d="M320 448c35.3281 0 64 -28.6719 64 -64v-384c0 -35.3281 -28.6719 -64 -64 -64h-256c-35.3281 0 -64 28.6719 -64 64v384c0 35.3281 28.6719 64 64 64h256zM192 416c-8.83203 0 -16 -7.16797 -16 -16s7.16797 -16 16 -16s16 7.16797 16 16s-7.16797 16 -16 16zM192 -32
c8.83203 0 16 7.16797 16 16s-7.16797 16 -16 16s-16 -7.16797 -16 -16s7.16797 -16 16 -16zM288 192v112c0 26.4961 -21.5039 48 -48 48h-96c-26.4961 0 -48 -21.5039 -48 -48v-224c0 -26.4961 21.5039 -48 48 -48h96c26.4961 0 48 21.5039 48 48v112z"/>
			<glyph glyph-name="light-switch-on-primary" unicode="&#xf919;" horiz-adv-x="384"
				   d="M64 -64c-35.3281 0 -64 28.6719 -64 64v384c0 35.3281 28.6719 64 64 64h256c35.3281 0 64 -28.6719 64 -64v-384c0 -35.3281 -28.6719 -64 -64 -64h-256zM192 -32c8.83203 0 16 7.16797 16 16s-7.16797 16 -16 16s-16 -7.16797 -16 -16s7.16797 -16 16 -16zM192 416
c-8.83203 0 -16 -7.16797 -16 -16s7.16797 -16 16 -16s16 7.16797 16 16s-7.16797 16 -16 16zM96 192v-112c0 -26.4961 21.5039 -48 48 -48h96c26.4961 0 48 21.5039 48 48v224c0 26.4961 -21.5039 48 -48 48h-96c-26.4961 0 -48 -21.5039 -48 -48v-112z"/>
			<glyph glyph-name="microwave-primary" unicode="&#xf91b;"
				   d="M464 384c26.4961 0 48 -21.5039 48 -48v-256c0 -26.4961 -21.5039 -48 -48 -48l-24 -32h-48l-24 32h-224l-24 -32h-48l-24 32c-26.4961 0 -48 21.5039 -48 48v256c0 26.4961 21.5039 48 48 48h416zM384 96v224h-320v-224h320zM448 168c13.248 0 24 10.752 24 24
s-10.752 24 -24 24s-24 -10.752 -24 -24s10.752 -24 24 -24zM448 264c13.248 0 24 10.752 24 24s-10.752 24 -24 24s-24 -10.752 -24 -24s10.752 -24 24 -24z"/>
			<glyph glyph-name="outlet-primary" unicode="&#xf91c;"
				   d="M448 448c35.3281 0 64 -28.6719 64 -64v-384c0 -35.3281 -28.6719 -64 -64 -64h-384c-35.3281 0 -64 28.6719 -64 64v384c0 35.3281 28.6719 64 64 64h384zM386.27 38.71c38.0205 39.0098 61.7305 93.1904 61.7305 153.29s-23.7305 114.3 -61.7305 153.3
c-3.7041 3.69922 -10.959 6.70117 -16.1943 6.70117c-0.0625 0 -0.163086 0 -0.225586 -0.000976562h-227.699c-0.0625 0.000976562 -0.163086 0.000976562 -0.225586 0.000976562c-5.23535 0 -12.4902 -3.00195 -16.1943 -6.70117
c-38.0205 -39.0098 -61.7305 -93.2002 -61.7305 -153.3s23.71 -114.28 61.7305 -153.29c3.70605 -3.7041 10.9678 -6.71094 16.208 -6.71094c0.0585938 0 0.15332 0 0.211914 0.000976562h227.699c0.0585938 -0.000976562 0.15332 -0.000976562 0.211914 -0.000976562
c5.24023 0 12.502 3.00684 16.208 6.71094z"/>
			<glyph glyph-name="oven-primary" unicode="&#xf91d;" horiz-adv-x="448"
				   d="M384 448c35.3281 0 64 -28.6719 64 -64v-96h-448v96c0 35.3281 28.6719 64 64 64h320zM80 344c13.248 0 24 10.752 24 24s-10.752 24 -24 24s-24 -10.752 -24 -24s10.752 -24 24 -24zM176 344c13.248 0 24 10.752 24 24s-10.752 24 -24 24s-24 -10.752 -24 -24
s10.752 -24 24 -24zM272 344c13.248 0 24 10.752 24 24s-10.752 24 -24 24s-24 -10.752 -24 -24s10.752 -24 24 -24zM368 344c13.248 0 24 10.752 24 24s-10.752 24 -24 24s-24 -10.752 -24 -24s10.752 -24 24 -24zM0 -32v288h448v-288c0 -17.6641 -14.3359 -32 -32 -32
h-384c-17.6641 0 -32 14.3359 -32 32zM64 192v-192h320v192h-320zM96 128v32h256v-32h-256z"/>
			<glyph glyph-name="planet-moon-primary" unicode="&#xf91f;" horiz-adv-x="576"
				   d="M512 448c35.3271 0 64 -28.6729 64 -64c0 -35.3281 -28.6719 -64 -64 -64s-64 28.6719 -64 64s28.6719 64 64 64zM288 160c17.6641 0 32 -14.3359 32 -32v-16.8906v-0.00390625c0 -8.33984 -3.02734 -21.1631 -6.75781 -28.623l-40.3242 -80.6484
c-3.59961 -7.19531 -12.9609 -14.1182 -20.8945 -15.4531c-3.44141 -0.581055 -6.91406 -1.05859 -10.418 -1.43359c-0.433594 -0.0429688 -1.13965 -0.0771484 -1.5752 -0.0771484c-8.84863 0 -16.0303 7.18164 -16.0303 16.0303v0.03125
c-0.00390625 23.4785 -0.0078125 63.0684 0 63.0684c-17.6631 0.000976562 -31.999 14.3369 -32 32v32l-54.625 54.6289c-5.1748 5.17285 -15.3125 9.37109 -22.6289 9.37109l-25.0273 0.00195312c-29.9961 -0.00195312 -55.2734 27.4375 -71.5156 56.4355
c31.5674 73.3438 121.983 133.986 201.82 135.361c17.6875 -28.5098 35.9766 -67.002 35.9766 -76.4199c-0.000976562 -10.6973 -4.81641 -26.6025 -10.75 -35.5039l-49.7266 -57.3574c-4.31836 -4.98047 -7.82324 -14.3721 -7.82324 -20.9648
c0 -7.31543 4.19727 -17.4512 9.37012 -22.625c6.0332 -6.03125 17.8525 -10.9268 26.3828 -10.9277h64.5469z"/>
			<glyph glyph-name="planet-ringed-primary" unicode="&#xf920;"
				   d="M448.1 271.72c31.2588 -75.418 16.293 -165.478 -45.0244 -226.796c-61.3184 -61.3174 -151.38 -76.2812 -226.796 -45.0244c46.0244 31.9658 96.8154 74.5234 147.059 124.766c50.2363 50.2393 92.7959 101.032 124.762 147.055zM423.079 315.502
c-27.7393 -42.2568 -75.1777 -98.9326 -133.414 -157.166c-58.2354 -58.2363 -114.917 -105.677 -157.168 -133.416c-6.9209 5.03613 -17.4883 13.998 -23.5869 20.0039c-81.2285 81.2314 -81.2285 212.935 0 294.165c81.2295 81.2334 212.936 81.2334 294.165 0
c6.00586 -6.09863 14.9678 -16.665 20.0039 -23.5869z"/>
			<glyph glyph-name="police-box-primary" unicode="&#xf921;" horiz-adv-x="384"
				   d="M352 -16h-320v376c0 13.248 10.752 24 24 24v0h8v16v0c0 8.83203 7.16797 16 16 16v0h223.977v0c8.83203 0 16 -7.16797 16 -16v0v-16h8.02344v0c13.248 0 24 -10.752 24 -24v0v-376zM96 312v-24h32v32h-24c-4.41602 0 -8 -3.58398 -8 -8zM96 272v-24
c0 -4.41602 3.58398 -8 8 -8h24v32h-32zM176 136v64c0 4.41602 -3.58398 8 -8 8h-64c-4.41602 0 -8 -3.58398 -8 -8v-64c0 -4.41602 3.58398 -8 8 -8h64c4.41602 0 8 3.58398 8 8zM176 248v24h-32v-32h24c4.41602 0 8 3.58398 8 8zM176 288v24c0 4.41602 -3.58398 8 -8 8
h-24v-32h32zM240 240v32h-32v-24c0 -4.41602 3.58398 -8 8 -8h24zM240 288v32h-24c-4.41602 0 -8 -3.58398 -8 -8v-24h32zM288 248v24h-32v-32h24c4.41602 0 8 3.58398 8 8zM288 288v24c0 4.41602 -3.58398 8 -8 8h-24v-32h32z"/>
			<glyph glyph-name="portal-enter-primary" unicode="&#xf922;"
				   d="M113.688 130.521c6.7998 -15.0498 23.8232 -34.1387 38 -42.6094l10.6562 -6.29688l-8.78125 -20.5332c-6.86523 -16.0508 -26.6055 -29.0781 -44.0635 -29.0781h-0.0615234h-77.4375c-17.6426 0.0224609 -31.9609 14.3584 -31.9609 32.001
s14.3184 31.9785 31.9609 32.001h66.875zM272 351.998c-26.4951 0.000976562 -47.999 21.5049 -48 48v0.000976562c0 26.4961 21.5049 48.001 48.001 48.001s48.001 -21.5049 48.001 -48.001s-21.5049 -48.001 -48.001 -48.001h-0.000976562zM384 224.01
c17.665 0 32.001 -14.3359 32.001 -32.001c0 -17.6641 -14.3359 -32.001 -32.001 -32.001h-54c-16.4863 0.0625 -35.792 12.1094 -43.0938 26.8906l-20.2812 41.4395l-31.3125 -78.2832l61.25 -36.1426c12.9346 -7.73926 23.4316 -26.2539 23.4316 -41.3262
c0 -3.67578 -0.80957 -9.5293 -1.80664 -13.0664l-31.625 -101.064c-3.85547 -12.3955 -17.5195 -22.4551 -30.501 -22.4551c-2.71973 0 -7.03125 0.665039 -9.62402 1.48438c-12.3701 3.87598 -22.4092 17.543 -22.4092 30.5059c0 2.70996 0.65918 7.00586 1.47168 9.58984
l27.4375 87.7207l-84.9375 50.1738c-17.3535 10.2891 -31.4375 35.0137 -31.4375 55.1885c0 7.22266 2.2959 18.4795 5.125 25.126l37.4375 87.3945l-14.6875 4.375c-7.8125 1.85938 -17.5938 -0.25 -25.25 -6.14062l-39.6875 -30.4082
c-4.75488 -3.64551 -13.4766 -6.60449 -19.4688 -6.60449c-17.6621 0 -31.9961 14.334 -31.9961 31.9961c0 8.71387 5.6123 20.0898 12.5273 25.3916l39.625 30.4062c14.2383 10.9492 40.3711 19.8359 58.333 19.8359c6.31055 0 16.4092 -1.20703 22.542 -2.69336
l71.0625 -21.1426c26.3125 -6.71875 49.2812 -25.3906 61.7812 -50.9375l26.0625 -53.252h44.0312z"/>
			<glyph glyph-name="portal-exit-primary" unicode="&#xf923;"
				   d="M368 351.998c-26.4951 0.000976562 -47.999 21.5049 -48 48v0.000976562c0 26.4961 21.5049 48.001 48.001 48.001s48.001 -21.5049 48.001 -48.001s-21.5049 -48.001 -48.001 -48.001h-0.000976562zM209.688 130.521c6.7998 -15.0498 23.8232 -34.1387 38 -42.6094
l10.6562 -6.29688l-8.78125 -20.5332c-6.86523 -16.0508 -26.6055 -29.0781 -44.0635 -29.0781h-0.0615234h-77.4375c-17.6426 0.0224609 -31.9609 14.3584 -31.9609 32.001s14.3184 31.9785 31.9609 32.001h66.875zM480 224.01c17.665 0 32.001 -14.3359 32.001 -32.001
c0 -17.6641 -14.3359 -32.001 -32.001 -32.001h-54c-16.4863 0.0625 -35.792 12.1094 -43.0938 26.8906l-20.2812 41.4395l-31.3125 -78.2832l61.25 -36.1426c12.9346 -7.73926 23.4316 -26.2539 23.4316 -41.3262c0 -3.67578 -0.80957 -9.5293 -1.80664 -13.0664
l-31.625 -101.064c-3.85547 -12.3955 -17.5195 -22.4551 -30.501 -22.4551c-2.71973 0 -7.03125 0.665039 -9.62402 1.48438c-12.3701 3.87598 -22.4092 17.543 -22.4092 30.5059c0 2.70996 0.65918 7.00586 1.47168 9.58984l27.4375 87.7207l-84.9375 50.1738
c-17.3535 10.2891 -31.4375 35.0137 -31.4375 55.1885c0 7.22266 2.2959 18.4795 5.125 25.126l37.4375 87.3945l-14.6875 4.375c-7.8125 1.85938 -17.5938 -0.25 -25.25 -6.14062l-39.6875 -30.4082c-4.75488 -3.64551 -13.4766 -6.60449 -19.4688 -6.60449
c-17.6621 0 -31.9961 14.334 -31.9961 31.9961c0 8.71387 5.6123 20.0898 12.5273 25.3916l39.625 30.4062c14.2383 10.9492 40.3711 19.8359 58.333 19.8359c6.31055 0 16.4092 -1.20703 22.542 -2.69336l71.0625 -21.1426
c26.3125 -6.71875 49.2812 -25.3906 61.7812 -50.9375l26.0625 -53.252h44.0312z"/>
			<glyph glyph-name="radar-primary" unicode="&#xf924;"
				   d="M227.305 2.375c-77.1533 11.6797 -149.25 83.7764 -160.93 160.93c3.55176 -1.77246 9.65625 -3.25293 13.625 -3.30469c7.07031 0 13.2656 2.75 18.5625 6.63477c10.1494 -62.7529 69.3174 -121.921 132.07 -132.07
c-3.88281 -5.29688 -6.63281 -11.4922 -6.63281 -18.5645c0.0517578 -3.96875 1.53223 -10.0732 3.30469 -13.625zM281.367 34.5645c76.1328 12.2598 134.633 77.8965 134.633 157.436h32c0 -96.2598 -70.9141 -175.74 -163.305 -189.625
c1.77246 3.55176 3.25293 9.65625 3.30469 13.625c0 7.07227 -2.75 13.2676 -6.63281 18.5645zM475.312 400.004c2.58789 -2.58691 4.6875 -7.65527 4.6875 -11.3135s-2.09961 -8.72656 -4.6875 -11.3135l-201.371 -201.373
c-2.58691 -2.58691 -7.65625 -4.68652 -11.3145 -4.68652s-8.72754 2.09961 -11.3145 4.68652l-11.3086 11.3105c-2.58594 2.58691 -4.68457 7.65527 -4.68457 11.3135s2.09863 8.72656 4.68457 11.3135l40.7148 40.7129c-6.51367 2.90137 -17.5879 5.2959 -24.7188 5.3457
c-35.3281 0 -64 -28.6719 -64 -64s28.6719 -64 64 -64s64 28.6719 64 64h32c0 -52.9922 -43.0078 -96 -96 -96s-96 43.0078 -96 96s43.0078 96 96 96c14.4307 -0.00976562 36.1621 -6.08301 48.5078 -13.5547l45.6211 45.6211
c-26.4805 19.6523 -58.6875 31.9336 -94.1289 31.9336c-79.5391 0 -145.176 -58.498 -157.438 -134.633c-5.29688 3.88477 -11.4922 6.63281 -18.5625 6.63281c-3.96875 -0.0507812 -10.0732 -1.53027 -13.625 -3.30273c13.8828 92.3887 93.3672 163.303 189.625 163.303
h0.0966797c36.2754 0 88.9072 -18.1377 117.481 -40.4863l67.7969 67.8008c2.58691 2.58691 7.65625 4.68555 11.3145 4.68555s8.72754 -2.09863 11.3145 -4.68555z"/>
			<glyph glyph-name="raygun-primary" unicode="&#xf925;" horiz-adv-x="576"
				   d="M554.938 328.989c1.35938 0.453125 3.62695 0.821289 5.05957 0.821289c8.83203 0 16.001 -7.16699 16.0029 -15.999v-83.5801c-0.00195312 -8.83203 -7.17188 -16 -16.0039 -16c-1.43555 0 -3.70508 0.368164 -5.06641 0.822266l-74.8125 24.9707h-64.0742v63.9922
h63.957zM112 383.999h128c13.9521 -0.0703125 35.4561 -5.08398 48 -11.1914v-201.617c-12.5439 -6.10645 -34.0479 -11.1201 -48 -11.1914h-128h-0.0332031c-61.8242 0 -112 50.1768 -112 112c0 61.8242 50.1758 112 112 112h0.0332031zM111.953 248.022
c13.2461 0.000976562 23.998 10.752 24 23.998c0 13.2471 -10.751 23.998 -23.998 23.998s-23.998 -10.751 -23.998 -23.998c0 -13.2451 10.75 -23.9961 23.9961 -23.998zM207.961 248.022c13.2471 0 24 10.752 24 23.998c0 13.2471 -10.751 23.998 -23.998 23.998
s-23.998 -10.751 -23.998 -23.998c0 -13.2451 10.75 -23.9961 23.9961 -23.998z"/>
			<glyph glyph-name="refrigerator-primary" unicode="&#xf926;" horiz-adv-x="384"
				   d="M0 255.5v32h288v-32h-288zM320 287.5h64v-32h-64v32z"/>
			<glyph glyph-name="rocket-launch-primary" unicode="&#xf927;"
				   d="M505.16 428.484c6.96875 -32.5723 6.90234 -58.0918 6.82422 -83.1816c0 -88.7656 -40.625 -156.217 -127.859 -212.277c-0.957031 -0.548828 -1.82812 -1.04883 -2.78906 -1.59766c-33.9609 -17.0078 -110.062 -54.6797 -157.336 -78.0742v10.6465v0
c0 52.9922 -43.0078 96 -96 96v0h-10.5391c23.4414 47.4121 61.0117 123.373 77.8906 157.328c0.554688 0.976562 1.06641 1.875 1.625 2.85352c55.832 87.2031 123.359 127.818 212.508 127.818c24.8906 0 50.7422 0 83.1406 -6.94531
c5.62891 -1.30566 11.2451 -6.9375 12.5352 -12.5703zM368 256c26.4854 0.0117188 47.9893 21.5166 48 48.002c-0.000976562 26.4951 -21.5049 47.998 -48 47.998c-26.4961 0 -48 -21.5039 -48 -48s21.5039 -48 48 -48zM78.8672 66.6484
c16.7812 16.7852 39.1641 17.8633 54.3984 2.62891c15.2305 -15.2363 14.1562 -37.6152 -2.62891 -54.3984c-10.7305 -10.7324 -37.6055 -16.1113 -66.4023 -14.627c-1.46484 28.6738 3.85938 55.623 14.6328 66.3965z"/>
			<glyph glyph-name="sensor-primary" unicode="&#xf928;" horiz-adv-x="448"
				   d="M80 352c8.83203 0 16 -7.16797 16 -16v-160c0 -8.83203 -7.16797 -16 -16 -16s-16 7.16797 -16 16v160c0 8.83203 7.16797 16 16 16zM144 352c8.83203 0 16 -7.16797 16 -16v-160c0 -8.83203 -7.16797 -16 -16 -16s-16 7.16797 -16 16v160c0 8.83203 7.16797 16 16 16z
M208 352c8.83203 0 16 -7.16797 16 -16v-160c0 -8.83203 -7.16797 -16 -16 -16s-16 7.16797 -16 16v160c0 8.83203 7.16797 16 16 16z"/>
			<glyph glyph-name="sensor-alert-primary" unicode="&#xf929;" horiz-adv-x="640"
				   d="M633.09 44.6299c19.6504 -34.0596 -4.93945 -76.6299 -44.2695 -76.6299h-281.641c-39.3398 0 -63.9199 42.5703 -44.2695 76.6396l140.83 244.141c19.6602 34.0996 68.8594 34.0996 88.5293 0zM448 16c13.248 0 24 10.752 24 24s-10.752 24 -24 24s-24 -10.752 -24 -24
s10.752 -24 24 -24zM467.08 98.7998l9.59961 96c0.0332031 0.330078 0.0605469 0.868164 0.0605469 1.2002c0 6.62402 -5.37598 12 -12 12v0h-33.4707v0c-6.62402 0 -12 -5.37598 -12 -12c0 -0.332031 0.0273438 -0.870117 0.0605469 -1.2002l9.58984 -96
c0.599609 -5.96094 5.94824 -10.7998 11.9395 -10.7998h0.0107422h14.2695h0.000976562c5.99121 0 11.3398 4.83887 11.9395 10.7998zM80 352c8.83203 0 16 -7.16797 16 -16v-160c0 -8.83203 -7.16797 -16 -16 -16s-16 7.16797 -16 16v160c0 8.83203 7.16797 16 16 16z
M144 352c8.83203 0 16 -7.16797 16 -16v-160c0 -8.83203 -7.16797 -16 -16 -16s-16 7.16797 -16 16v160c0 8.83203 7.16797 16 16 16zM208 352c8.83203 0 16 -7.16797 16 -16v-160c0 -8.83203 -7.16797 -16 -16 -16s-16 7.16797 -16 16v160c0 8.83203 7.16797 16 16 16z"/>
			<glyph glyph-name="sensor-fire-primary" unicode="&#xf92a;" horiz-adv-x="640"
				   d="M551.13 297.14c51.75 -48.0293 88.8701 -126.52 88.8701 -164.569c0 -90.9004 -71.6602 -164.57 -160 -164.57s-160 73.6699 -160 164.57c0 51.1396 49.8203 136.029 120 201.14c21.7188 -20.0195 53.5264 -55.5947 71 -79.4102
c10.2617 12.5869 28.2402 31.7793 40.1299 42.8398zM540.07 50.1396c36.9297 25.8506 45.5898 75.8604 25.0693 115c-2.50977 4.85059 -5.33008 9.87988 -8.43945 15l-44 -50.1396s-68.9199 88 -74.1006 94c-36.3691 -43.5898 -54.5996 -69.0703 -54.5996 -98.0703
c0 -58.1201 44.0498 -93.9297 98.1602 -93.9297h0.199219c17.502 0 43.3564 8.12695 57.7109 18.1396zM208 352c8.83203 0 16 -7.16797 16 -16v-160c0 -8.83203 -7.16797 -16 -16 -16s-16 7.16797 -16 16v160c0 8.83203 7.16797 16 16 16zM80 352
c8.83203 0 16 -7.16797 16 -16v-160c0 -8.83203 -7.16797 -16 -16 -16s-16 7.16797 -16 16v160c0 8.83203 7.16797 16 16 16zM144 352c8.83203 0 16 -7.16797 16 -16v-160c0 -8.83203 -7.16797 -16 -16 -16s-16 7.16797 -16 16v160c0 8.83203 7.16797 16 16 16z"/>
			<glyph glyph-name="sensor-on-primary" unicode="&#xf92b;" horiz-adv-x="640"
				   d="M616 216c13.248 0 24 -10.752 24 -24s-10.752 -24 -24 -24h-64c-13.248 0 -24 10.752 -24 24s10.752 24 24 24h64zM536 304c-13.2168 0.03125 -23.9434 10.7832 -23.9434 24c0 7.05859 4.75488 15.9824 10.6133 19.9199l48 32
c3.43945 2.43359 9.65039 4.40918 13.8633 4.40918c13.248 0 24 -10.752 24 -24c0 -7.32715 -5.03711 -16.4346 -11.2432 -20.3291l-48 -32c-3.31738 -2.20801 -9.24316 -4 -13.2275 -4h-0.0625zM549.29 76l48.0195 -32c5.91504 -3.93555 10.7148 -12.8955 10.7148 -20
c0 -13.2617 -10.7627 -24.0244 -24.0244 -24.0244c-4.00977 0 -9.97266 1.80273 -13.3096 4.02441l-48 32c-5.91699 3.93457 -10.7188 12.8945 -10.7188 20c0 13.2578 10.7598 24.0186 24.0186 24.0186c4.00586 0 9.96387 -1.80078 13.2998 -4.01855zM80 352
c8.83203 0 16 -7.16797 16 -16v-160c0 -8.83203 -7.16797 -16 -16 -16s-16 7.16797 -16 16v160c0 8.83203 7.16797 16 16 16zM208 352c8.83203 0 16 -7.16797 16 -16v-160c0 -8.83203 -7.16797 -16 -16 -16s-16 7.16797 -16 16v160c0 8.83203 7.16797 16 16 16zM144 352
c8.83203 0 16 -7.16797 16 -16v-160c0 -8.83203 -7.16797 -16 -16 -16s-16 7.16797 -16 16v160c0 8.83203 7.16797 16 16 16z"/>
			<glyph glyph-name="sensor-smoke-primary" unicode="&#xf92c;" horiz-adv-x="640"
				   d="M572.66 126.72c37.1934 -5.88086 67.3799 -41.2139 67.3799 -78.8701c0 -44.0771 -35.7734 -79.8496 -79.8506 -79.8496h-0.189453h-224c-44.1602 0 -80 35.8398 -80 80s35.8398 80 80 80c0.55957 0 1.08008 -0.169922 1.63965 -0.169922
c-0.90332 4.39551 -1.63574 11.6055 -1.63574 16.0928c0 44.127 35.8125 79.9395 79.9395 79.9395c29.9893 0 63.2871 -22.6289 74.3262 -50.5127c7.92383 10.293 24.8955 18.6455 37.8848 18.6455c26.3916 0 47.8096 -21.4189 47.8096 -47.8096
c0 -4.99316 -1.47949 -12.8174 -3.30371 -17.4658zM80 352c8.83203 0 16 -7.16797 16 -16v-160c0 -8.83203 -7.16797 -16 -16 -16s-16 7.16797 -16 16v160c0 8.83203 7.16797 16 16 16zM144 352c8.83203 0 16 -7.16797 16 -16v-160c0 -8.83203 -7.16797 -16 -16 -16
s-16 7.16797 -16 16v160c0 8.83203 7.16797 16 16 16zM208 352c8.83203 0 16 -7.16797 16 -16v-160c0 -8.83203 -7.16797 -16 -16 -16s-16 7.16797 -16 16v160c0 8.83203 7.16797 16 16 16z"/>
			<glyph glyph-name="siren-primary" unicode="&#xf92d;" horiz-adv-x="448"
				   d="M432 96c8.83203 0 16 -7.16797 16 -16v-64c0 -8.83203 -7.16797 -16 -16 -16h-416c-8.83203 0 -16 7.16797 -16 16v64c0 8.83203 7.16797 16 16 16h416z"/>
			<glyph glyph-name="siren-on-primary" unicode="&#xf92e;" horiz-adv-x="640"
				   d="M528 96c8.83203 0 16 -7.16797 16 -16v-64c0 -8.83203 -7.16797 -16 -16 -16h-416c-8.83203 0 -16 7.16797 -16 16v64c0 8.83203 7.16797 16 16 16h416zM112 256c0 -13.248 -10.752 -24 -24 -24h-64c-13.248 0 -24 10.752 -24 24s10.752 24 24 24h64
c13.248 0 24 -10.752 24 -24zM616 280c13.248 0 24 -10.752 24 -24s-10.752 -24 -24 -24h-64c-13.248 0 -24 10.752 -24 24s10.752 24 24 24h64zM90.6904 372l-48 32c-6.20703 3.89453 -11.2441 13.002 -11.2441 20.3291c0 13.248 10.752 24 24 24
c4.21387 0 10.4248 -1.97559 13.8633 -4.40918l48 -32c6.20703 -3.89453 11.2441 -13.002 11.2441 -20.3291c0 -13.248 -10.752 -24 -24 -24c-4.21387 0 -10.4248 1.97559 -13.8633 4.40918zM536 368c-13.2227 0.0253906 -23.9531 10.7773 -23.9531 24
c0 7.07129 4.76758 16.0049 10.6436 19.9404l48 32c3.4209 2.39453 9.58594 4.33789 13.7627 4.33789c13.248 0 24 -10.752 24 -24c0 -7.29297 -5.00098 -16.3779 -11.1631 -20.2783l-48 -32c-3.31738 -2.20801 -9.24316 -4 -13.2275 -4h-0.0625z"/>
			<glyph glyph-name="solar-system-primary" unicode="&#xf92f;"
				   d="M256 256c35.3281 0 64.0049 -28.6719 64.0068 -64c0 -35.3281 -28.6719 -64 -64 -64s-64 28.6719 -64 64c0 35.3242 28.6689 63.9961 63.9932 64zM52.3301 395.646c9.05371 9.05664 26.7959 16.4062 39.6016 16.4062s30.5479 -7.34961 39.6016 -16.4062
c9.05371 -9.05371 16.4014 -26.7939 16.4014 -39.5977c0 -30.9131 -25.0898 -56.0029 -56.0029 -56.0029s-56.0029 25.0898 -56.0029 56.0029c0 12.8037 7.34766 30.5439 16.4014 39.5977zM391.78 327.766c7.75879 -7.76172 14.0557 -22.9668 14.0557 -33.9414
s-6.29688 -26.1797 -14.0557 -33.9414c-7.76074 -7.76172 -22.9688 -14.0615 -33.9453 -14.0615c-26.4971 0 -48.0029 21.5049 -48.0029 48.0029s21.5059 48.0029 48.0029 48.0029c10.9766 0 26.1846 -6.2998 33.9453 -14.0615zM459.67 67.5508
c9.05176 -9.05469 16.3984 -26.7949 16.3984 -39.5986s-7.34668 -30.5439 -16.3984 -39.5986c-9.05469 -9.05566 -26.7959 -16.4043 -39.6016 -16.4043c-30.9141 0 -56.0029 25.0889 -56.0029 56.0029s25.0889 56.0029 56.0029 56.0029
c12.8057 0 30.5469 -7.34863 39.6016 -16.4043z"/>
			<glyph glyph-name="sort-circle-primary" unicode="&#xf930;"
				   d="M164.75 224c-16.4004 0 -24.5898 19.8496 -13 31.4199l91.25 91.1699c2.96484 2.99023 8.78906 5.41602 13 5.41602s10.0352 -2.42578 13 -5.41602l91.1104 -91.1699c11.5898 -11.5703 3.40918 -31.4199 -13 -31.4199h-182.36zM347.11 160
c16.4092 0 24.5898 -19.8496 13.0693 -31.4102l-91.1797 -91.1797c-2.96484 -2.99023 -8.78906 -5.41602 -13 -5.41602s-10.0352 2.42578 -13 5.41602l-91.25 91.1797c-11.5898 11.5605 -3.40039 31.4102 13 31.4102h182.36z"/>
			<glyph glyph-name="sort-circle-down-primary" unicode="&#xf931;"
				   d="M360.27 128.59l-91.2695 -91.1797c-2.96484 -2.99023 -8.78906 -5.41602 -13 -5.41602s-10.0352 2.42578 -13 5.41602l-91.1797 91.1797c-11.5605 11.5605 -3.37988 31.4102 13 31.4102h182.42c16.4102 0 24.5898 -19.8496 13.0293 -31.4102z"/>
			<glyph glyph-name="sort-circle-up-primary" unicode="&#xf932;"
				   d="M151.73 255.41l91.2695 91.1797c2.96484 2.99023 8.78906 5.41602 13 5.41602s10.0352 -2.42578 13 -5.41602l91.1797 -91.1797c11.5605 -11.5605 3.37988 -31.4102 -13 -31.4102h-182.42c-16.4102 0 -24.5898 19.8496 -13.0293 31.4102z"/>
			<glyph glyph-name="space-station-moon-primary" unicode="&#xf933;"
				   d="M256 128c90.5234 0 174.805 13.2305 246.273 35.7344c-1.18555 -10.0791 -4.31445 -26.207 -6.98438 -35.998c-70.5781 -20.2754 -151.945 -31.7363 -239.289 -31.7363s-168.711 11.4609 -239.289 31.7363c-2.66992 9.79102 -5.79883 25.9189 -6.98438 35.998
c71.4688 -22.5039 155.75 -35.7344 246.273 -35.7344zM192 208c-44.1602 0 -80 35.8398 -80 80s35.8398 80 80 80s80 -35.8398 80 -80s-35.8398 -80 -80 -80zM192 312c-13.248 0 -24 -10.752 -24 -24v0c0 -13.248 10.752 -24 24 -24s24 10.752 24 24s-10.752 24 -24 24z"/>
			<glyph glyph-name="space-station-moon-alt-primary" unicode="&#xf934;"
				   d="M256 128c90.5234 0 174.805 13.2305 246.273 35.7344c-1.18555 -10.0791 -4.31445 -26.207 -6.98438 -35.998c-70.5781 -20.2754 -151.945 -31.7363 -239.289 -31.7363s-168.711 11.4609 -239.289 31.7363c-2.66992 9.79102 -5.79883 25.9189 -6.98438 35.998
c71.4688 -22.5039 155.75 -35.7344 246.273 -35.7344zM192 208c-44.1602 0 -80 35.8398 -80 80s35.8398 80 80 80s80 -35.8398 80 -80s-35.8398 -80 -80 -80zM192 312c-13.248 0 -24 -10.752 -24 -24v0c0 -13.248 10.752 -24 24 -24s24 10.752 24 24s-10.752 24 -24 24z"/>
			<glyph glyph-name="sprinkler-primary" unicode="&#xf935;"
				   d="M412.41 163.56l-67.5205 -78.2295l-24.8896 -24.8896v-124.44h-128v124.44l-24.8896 24.8896l-67.5205 78.2295c-1.96484 2.61719 -3.55957 7.39746 -3.55957 10.6709c0 9.80859 7.96094 17.7695 17.7695 17.7695h0.00976562h110.19v176c0 8.83203 7.16797 16 16 16h32
c8.83203 0 16 -7.16797 16 -16v-176h110.19h0.00976562c9.80859 0 17.7695 -7.96094 17.7695 -17.7695c0 -3.27344 -1.59473 -8.05371 -3.55957 -10.6709z"/>
			<glyph glyph-name="star-shooting-primary" unicode="&#xf936;"
				   d="M82.8975 67.5156l-75.9072 73.9971c-13.7031 13.2959 -6.09375 36.498 12.7031 39.2012l104.799 15.2959l46.9072 95.1992c8.5 17.2021 32.7979 16.999 41.1885 0l46.9072 -95.1992l104.799 -15.2959c18.7969 -2.70312 26.4072 -25.9053 12.7969 -39.2012
l-75.8916 -73.9971l17.8906 -104.59c0.182617 -1.06348 0.331055 -2.80176 0.331055 -3.88086c0 -12.6709 -10.2832 -22.9541 -22.9541 -22.9541c-3.125 0 -7.90723 1.17969 -10.6738 2.63281l-93.7988 49.3887l-93.7988 -49.3887
c-16.6104 -8.90527 -36.501 5.29688 -33.2979 24.2021z"/>
			<glyph glyph-name="starfighter-primary" unicode="&#xf937;" horiz-adv-x="640"
				   d="M512 96h80v-76.7988l-128 -51.2012v-16c0 -8.83203 -7.16797 -16 -16 -16h-16c-8.83203 0 -16 7.16797 -16 16v16h-192v-16c0 -8.83203 -7.16797 -16 -16 -16h-16c-8.83203 0 -16 7.16797 -16 16v16l-128 51.2012v76.7988h80v-80c0 -8.83203 7.16797 -16 16 -16h64
c8.83203 0 16 7.16797 16 16v80h32v96l30.25 241.986c0.966797 7.73535 8.0791 14.0137 15.875 14.0137h35.748c7.79688 0 14.9102 -6.2793 15.877 -14.0156l30.25 -241.984v-96h32v-80c0 -8.83203 7.16797 -16 16 -16h64c8.83203 0 16 7.16797 16 16v80zM352 144v48
c0 17.6641 -14.3359 32 -32 32s-32 -14.3359 -32 -32v-48c0 -8.83203 7.16797 -16 16 -16h32c8.83203 0 16 7.16797 16 16z"/>
			<glyph glyph-name="starfighter-alt-primary" unicode="&#xf938;" horiz-adv-x="576"
				   d="M288 352c88.3193 0 160 -71.6797 160 -159.999v-0.000976562c0 -88.3203 -71.6797 -160 -160 -160s-160 71.6797 -160 160s71.6797 160 160 160zM300 286.789v-32c7.17871 -1.3457 17.9111 -5.76465 23.957 -9.86328l22.6289 22.627
c-11.3955 8.84961 -32.2666 17.4678 -46.5859 19.2363zM276 286.789c-14.3193 -1.76855 -35.1904 -10.3867 -46.5859 -19.2363l22.6289 -22.627c6.0459 4.09863 16.7783 8.51758 23.957 9.86328v32zM212.445 250.584c-8.84863 -11.3955 -17.4648 -32.2656 -19.2344 -46.584
h32c1.34668 7.17871 5.76562 17.9111 9.86328 23.957zM193.211 180c1.76953 -14.3184 10.3857 -35.1885 19.2344 -46.584l22.6289 22.627c-4.09766 6.0459 -8.5166 16.7783 -9.86328 23.957h-32zM276 97.2109v32c-7.17871 1.3457 -17.9111 5.76465 -23.957 9.86328
l-22.6289 -22.627c11.3955 -8.84961 32.2666 -17.4678 46.5859 -19.2363zM256 192c0 -17.6641 14.3359 -32 32 -32s32 14.3359 32 32s-14.3359 32 -32 32s-32 -14.3359 -32 -32zM300 97.2109c14.3193 1.76855 35.1904 10.3867 46.5859 19.2363l-22.6289 22.627
c-6.0459 -4.09863 -16.7783 -8.51758 -23.957 -9.86328v-32zM363.555 133.416c8.84863 11.3955 17.4648 32.2656 19.2344 46.584h-32c-1.34668 -7.17871 -5.76562 -17.9111 -9.86328 -23.957zM350.789 204h32c-1.76953 14.3184 -10.3857 35.1885 -19.2344 46.584
l-22.6289 -22.627c4.09766 -6.0459 8.5166 -16.7783 9.86328 -23.957zM48 416c8.83203 0 16 -7.16797 16 -16v0v-416c0 -8.83203 -7.16797 -16 -16 -16h-32c-8.83203 0 -16 7.16797 -16 16v416v0c0 8.83203 7.16797 16 16 16v0h32zM560 416c8.83203 0 16 -7.16797 16 -16v0
v-416c0 -8.83203 -7.16797 -16 -16 -16h-32c-8.83203 0 -16 7.16797 -16 16v416v0c0 8.83203 7.16797 16 16 16v0h32z"/>
			<glyph glyph-name="starship-primary" unicode="&#xf939;" horiz-adv-x="640"
				   d="M208.25 237.113l54.4023 4.28516c-3.67188 -13.3867 -6.65234 -35.5176 -6.65234 -49.3984s2.98047 -36.0117 6.65234 -49.3984l-54.4023 4.28516l-70.4883 -50.8867h-73.7617l77.5625 56.9492l-10.7969 0.982422c-19.1904 1.74414 -34.7656 18.7998 -34.7656 38.0693
s15.5752 36.3252 34.7656 38.0693l10.7969 0.980469l-55.3242 56.9492h73.7617zM448 256c35.2881 -0.0400391 63.96 -28.7119 64 -64c0 -35.3281 -28.6719 -64 -64 -64s-64 28.6719 -64 64s28.6719 64 64 64zM448 160c17.6631 0.000976562 31.999 14.3369 32 32
c0 17.6641 -14.3359 32 -32 32s-32 -14.3359 -32 -32s14.3359 -32 32 -32z"/>
			<glyph glyph-name="starship-freighter-primary" unicode="&#xf93a;" horiz-adv-x="576"
				   d="M128.011 96c0 -8.83203 -7.16797 -15.999 -15.999 -15.999c-8.83203 0 -16 7.16797 -16 15.999c0 8.83203 7.16797 16 16 16c8.83105 -0.000976562 15.999 -7.16895 15.999 -16zM112.012 304c8.83203 0 15.999 -7.16797 15.999 -15.999v-0.000976562
c0 -8.83203 -7.16797 -16 -16 -16s-16 7.16797 -16 16s7.16797 16 16 16h0.000976562zM80.0127 208c8.83105 0 15.999 -7.16797 15.999 -15.999v-0.000976562c0 -8.83203 -7.16797 -16 -16 -16s-16 7.16797 -16 16s7.16797 16 16 16h0.000976562zM480.002 16
c-0.000976562 -26.4941 -21.5039 -47.998 -47.998 -48h-63.999c-12.5566 0.00195312 -29.2021 7.89062 -37.1553 17.6094l-103.669 126.711c-1.07812 -0.0429688 -2.08594 -0.320312 -3.17188 -0.320312c-0.308594 -0.00390625 -0.808594 -0.0078125 -1.11719 -0.0078125
c-44.7803 0 -81.123 36.3428 -81.123 81.123c0 44.7793 36.3428 81.123 81.123 81.123c44.7793 0 81.123 -36.3438 81.123 -81.123c0 -5.61523 -1.125 -14.5879 -2.51172 -20.0293l89.252 -109.086h41.249c26.4941 -0.00195312 47.9971 -21.5059 47.998 -48zM256.008 192
c0 17.6631 -14.3359 31.998 -31.999 31.998c-17.6641 0 -31.999 -14.335 -31.999 -31.999c0 -17.6631 14.335 -31.999 31.999 -31.999c17.6631 0 31.999 14.3359 31.999 32v0z"/>
			<glyph glyph-name="sword-laser-primary" unicode="&#xf93b;"
				   d="M139.438 154.653l22.6299 22.626l79.1973 -79.1934l-22.625 -22.626zM105.496 120.713l22.6299 22.626l79.1973 -79.1934l-22.6289 -22.626zM275.208 132.026c1.29199 -1.29395 2.34082 -3.82812 2.34082 -5.65625c0 -1.8291 -1.04883 -4.36328 -2.34082 -5.65723
l-11.3164 -11.3125c-1.29297 -1.29395 -3.82715 -2.34375 -5.65625 -2.34375s-4.36328 1.0498 -5.65625 2.34375l-79.1982 79.1934c-1.29395 1.29297 -2.34375 3.82715 -2.34375 5.65625s1.0498 4.36328 2.34375 5.65625l11.3135 11.3135
c1.29297 1.29395 3.82812 2.34375 5.6582 2.34375c1.8291 0 4.36426 -1.0498 5.6582 -2.34375zM9.36816 35.8652l79.1709 79.1777l90.5137 -90.5078l-79.2051 -79.2031c-5.18066 -5.15137 -15.3145 -9.33203 -22.6201 -9.33203c-7.31641 0 -17.46 4.19141 -22.6426 9.35547
l-45.2324 45.2744c-5.16211 5.17285 -9.35254 15.3018 -9.35254 22.6104c0 7.31445 4.19727 17.4512 9.36816 22.625z"/>
			<glyph glyph-name="sword-laser-alt-primary" unicode="&#xf93c;"
				   d="M94.2236 120.746l22.627 -22.625l-107.484 -107.484l-0.0078125 0.00390625c-5.16602 5.17188 -9.3584 15.3018 -9.3584 22.6113c0 7.31543 4.19727 17.4512 9.37012 22.624zM128.169 86.8037l22.6309 -22.6318l-107.503 -107.5l-22.623 22.6436zM309.035 191.938
c14.293 0 21.416 -17.3145 11.2607 -27.374l-124.227 -123.031l-90.5303 90.5293l55.1777 55.1875c2.58691 2.58789 7.65625 4.68848 11.3164 4.68848h0.00292969h136.999zM54.6123 -54.6514l107.503 107.506l22.6387 -22.6387l-84.8809 -84.8809
c-5.18164 -5.15332 -15.3174 -9.33496 -22.625 -9.33496c-7.3125 0 -17.4531 4.1875 -22.6357 9.34668v0.00195312z"/>
			<glyph glyph-name="swords-laser-primary" unicode="&#xf93d;" horiz-adv-x="640"
				   d="M196.602 223.371c10.0547 10.1777 27.3984 3.0625 27.3984 -11.2422v-137.029v-0.000976562c0 -3.67969 -2.12109 -8.7666 -4.73438 -11.3564l-119.359 -118.375c-5.17578 -5.1709 -15.3145 -9.36719 -22.6299 -9.36719c-7.31152 0 -17.4453 4.19238 -22.6201 9.35742
l-45.3086 45.2383c-5.16016 5.18066 -9.34766 15.3193 -9.34766 22.6309c0 7.30664 4.18262 17.4395 9.33594 22.6191l113.223 113.16c-5.16602 5.17285 -9.3584 15.3047 -9.3584 22.6152c0 17.668 14.3389 32.0078 32.0068 32.0078
c7.31641 0 17.4541 -4.19824 22.6289 -9.37109zM168.539 87.5527c8.83203 0 16.0049 7.16797 16.0078 16c0 8.83203 -7.16797 16 -16 16s-16 -7.16797 -16 -16c0 -8.82812 7.16406 -15.9961 15.9922 -16zM545.781 120.756l84.8828 -84.8828
c5.15332 -5.18164 9.33594 -15.3184 9.33594 -22.627c0 -7.31152 -4.18652 -17.4521 -9.34375 -22.6348l-0.00390625 -0.00195312l-107.504 107.508zM411.438 256.295l123.031 -124.223l-90.5312 -90.5312l-55.1875 55.1777
c-2.58691 2.58789 -4.6875 7.65918 -4.6875 11.3184v136.996c0 14.2949 17.3125 21.418 27.375 11.2617zM455.254 30.2246l22.625 22.625l107.484 -107.482l-0.00390625 -0.00585938c-5.17188 -5.16699 -15.3018 -9.36035 -22.6123 -9.36035
c-7.31543 0 -17.4502 4.19824 -22.6221 9.37012zM489.195 64.168l22.6328 22.6328l107.5 -107.502l-22.6445 -22.623z"/>
			<glyph glyph-name="telescope-primary" unicode="&#xf93e;" horiz-adv-x="640"
				   d="M638.777 231.169c0.672852 -1.62305 1.21777 -4.36523 1.21777 -6.12207c0 -5.90234 -4.4248 -12.5244 -9.87793 -14.7822l-117.312 -48.5967c-1.62305 -0.672852 -4.36523 -1.21777 -6.12207 -1.21777c-5.90234 0 -12.5254 4.4248 -14.7842 9.87793l-85.7109 206.948
c-0.672852 1.62402 -1.21875 4.36816 -1.21875 6.125c0 5.90039 4.42383 12.5215 9.875 14.7793l117.316 48.5977c1.62305 0.671875 4.36523 1.21777 6.12109 1.21777c5.90137 0 12.5234 -4.42578 14.7812 -9.87793zM376.133 99.4922l47.4766 -142.432
c0.453125 -1.35938 0.821289 -3.62695 0.821289 -5.05957c0 -8.83301 -7.16797 -16.001 -16.001 -16.001v0h-16.8594v0c-6.36621 0 -13.167 4.90137 -15.1797 10.9414l-42.168 126.498c-3.88672 -0.794922 -10.2617 -1.43945 -14.2295 -1.43945
c-3.96484 0 -10.335 0.643555 -14.2197 1.4375l-42.1641 -126.496c-2.01367 -6.03906 -8.81445 -10.9404 -15.1797 -10.9414h-16.8594v0c-8.83203 0 -16.001 7.16797 -16.001 16.001c0 1.43262 0.368164 3.7002 0.821289 5.05957l47.4648 142.404
c-8.70117 10.752 -15.8115 30.7031 -15.8711 44.5352c0 39.7432 32.2559 72 72 72s72 -32.2568 72 -72c-0.0595703 -13.8213 -7.16113 -33.7607 -15.8516 -44.5078zM319.984 120c13.2285 0.0195312 23.9805 10.7715 24 24c0 13.248 -10.752 24 -24 24s-24 -10.752 -24 -24
s10.752 -24 24 -24z"/>
			<glyph glyph-name="temperature-down-primary" unicode="&#xf93f;"
				   d="M160 125.09c17.6641 -6.24512 32 -26.5195 32 -45.2549c0 -26.4961 -21.5039 -48 -48 -48s-48 21.5039 -48 48c0 18.7354 14.3359 39.0098 32 45.2549v18.9102c0 8.83203 7.16797 16 16 16s16 -7.16797 16 -16v-18.9102zM496 96
c14.2197 0 21.3398 -17.25 11.3096 -27.3096l-80 -96c-2.58594 -2.58496 -7.65332 -4.68262 -11.3096 -4.68262s-8.72363 2.09766 -11.3096 4.68262l-80 96c-10.0801 10.0596 -2.89062 27.3096 11.3096 27.3096h48v304c0 8.83203 7.16797 16 16 16h32
c8.83203 0 16 -7.16797 16 -16v-304h48z"/>
			<glyph glyph-name="temperature-up-primary" unicode="&#xf940;"
				   d="M160 125.09c17.6641 -6.24512 32 -26.5195 32 -45.2549c0 -26.4961 -21.5039 -48 -48 -48s-48 21.5039 -48 48c0 18.7354 14.3359 39.0098 32 45.2549v210.91c0 8.83203 7.16797 16 16 16s16 -7.16797 16 -16v-210.91zM507.3 315.31
c10.0605 -10.0596 2.89062 -27.3096 -11.2998 -27.3096h-48v-304c0 -8.83203 -7.16797 -16 -16 -16h-32c-8.83203 0 -16 7.16797 -16 16v304h-48c-14.2197 0 -21.3398 17.25 -11.3301 27.3096l80 96c2.58691 2.58789 7.65625 4.68848 11.3154 4.68848
c3.6582 0 8.72754 -2.10059 11.3145 -4.68848z"/>
			<glyph glyph-name="trailer-primary" unicode="&#xf941;" horiz-adv-x="640"
				   d="M624 128c8.83203 0 16 -7.16797 16 -16v-32c0 -8.83203 -7.16797 -16 -16 -16h-337.61c-7.83008 54.21 -54 96 -110.39 96s-102.56 -41.79 -110.39 -96h-49.6104c-8.83203 0 -16 7.16797 -16 16v288c0 8.83203 7.16797 16 16 16h512c8.83203 0 16 -7.16797 16 -16v-240
h80zM96 204.32v107.68c0 4.41602 -3.58398 8 -8 8h-16c-4.41602 0 -8 -3.58398 -8 -8v-128.39c8.20996 6.67578 22.5469 15.9541 32 20.71zM192 222.86v89.1396c0 4.41602 -3.58398 8 -8 8h-16c-4.41602 0 -8 -3.58398 -8 -8v-89.1396
c5.30957 0.489258 10.5703 1.13965 16 1.13965s10.6904 -0.650391 16 -1.13965zM288 183.61v128.39c0 4.41602 -3.58398 8 -8 8h-16c-4.41602 0 -8 -3.58398 -8 -8v-107.68c9.45312 -4.75586 23.79 -14.0342 32 -20.71zM384 128v184c0 4.41602 -3.58398 8 -8 8h-16
c-4.41602 0 -8 -3.58398 -8 -8v-184h32zM480 128v184c0 4.41602 -3.58398 8 -8 8h-16c-4.41602 0 -8 -3.58398 -8 -8v-184h32z"/>
			<glyph glyph-name="transporter-primary" unicode="&#xf942;"
				   d="M255.957 352c-26.4961 0 -48 21.5039 -48 48s21.5039 48 48 48l0.0195312 -0.00195312l0.0195312 0.00195312c26.4961 0 48 -21.5039 48 -48s-21.5039 -48 -48 -48l-0.0195312 0.00195312zM384 0c17.6631 0 32.001 -14.335 32.001 -31.998v-0.00195312v-32h-320.01v32
v0.00195312c0 17.6631 14.335 31.998 31.998 31.998h0.00292969h56.002v209.221l-31.4229 -37.7051c-5.2959 -6.35449 -16.3076 -11.5117 -24.5791 -11.5117c-17.6621 0 -31.9961 14.334 -31.9961 31.9961c0 6.39453 3.32324 15.5723 7.41699 20.4844l70.4082 84.4844
c10.5596 12.7129 32.543 23.0312 49.0693 23.0312h0.0888672h66.0332h0.078125c16.5322 0 38.5273 -10.3184 49.0957 -23.0312l70.3926 -84.4844c4.08789 -4.91113 7.40625 -14.082 7.40625 -20.4717c0 -17.6621 -14.334 -31.9961 -31.9951 -31.9961
c-8.2666 0 -19.2734 5.15137 -24.5693 11.499l-31.4229 37.7051v-209.221h56.002zM263.996 0v128h-16v-128h16z"/>
			<glyph glyph-name="transporter-1-primary" unicode="&#xf943;"
				   d="M255.959 352c-26.4961 0 -48 21.5039 -48 48s21.5039 48 48 48l0.0195312 -0.00195312l0.0195312 0.00195312c26.4961 0 48 -21.5039 48 -48s-21.5039 -48 -48 -48l-0.0195312 0.00195312zM152.574 171.516c-5.2959 -6.35156 -16.3057 -11.5068 -24.5752 -11.5068
c-17.6611 0 -31.9951 14.334 -31.9951 31.9961c0 6.39258 3.32031 15.5674 7.41211 20.4795l70.4082 84.4844c10.5596 12.7129 32.543 23.0312 49.0693 23.0312h0.0878906h66.0332h0.078125c16.5322 0 38.5264 -10.3184 49.0947 -23.0312l70.3926 -84.4844
c4.0918 -4.91211 7.41211 -14.0869 7.41211 -20.4795c0 -17.6621 -14.334 -31.9961 -31.9951 -31.9961c-8.26953 0 -19.2793 5.15527 -24.5752 11.5068l-31.4219 37.7051v-113.221h-64.002v32h-16v-32h-64.002v113.221zM384.001 0c17.6641 0 32 -14.3359 32.001 -32v-32
h-320.008v32c0.000976562 17.6641 14.3369 32 32.001 32v0h256.006z"/>
			<glyph glyph-name="transporter-2-primary" unicode="&#xf944;"
				   d="M384.004 0c17.6641 0 32.001 -14.3359 32.001 -32v-32h-320.01v32c0 17.6641 14.3369 32 32.001 32v0h256.008zM255.961 352c-26.4961 0 -48 21.5039 -48 48s21.5039 48 48 48l0.0195312 -0.00195312l0.0195312 0.00195312c26.4961 0 48 -21.5039 48 -48
s-21.5039 -48 -48 -48l-0.0195312 0.00195312zM338.19 296.969l60.7979 -72.9688h-285.973l60.8096 72.9688c10.5596 12.7129 32.543 23.0312 49.0693 23.0312h0.0888672h66.0332h0.078125c16.5322 0 38.5273 -10.3184 49.0957 -23.0312z"/>
			<glyph glyph-name="transporter-3-primary" unicode="&#xf945;"
				   d="M416.005 -32v-32h-320.01v32c0 17.6641 14.3369 32 32.001 32v0h256.008v0c17.6641 0 32.001 -14.3359 32.001 -32z"/>
			<glyph glyph-name="transporter-empty-primary" unicode="&#xf946;"
				   d="M416.005 -32v-32h-320.01v32c0 17.6641 14.3369 32 32.001 32v0h256.008v0c17.6641 0 32.001 -14.3359 32.001 -32z"/>
			<glyph glyph-name="ufo-primary" unicode="&#xf947;" horiz-adv-x="640"
				   d="M493.652 235.418c87.9922 -22.8086 146.348 -62.3535 146.348 -107.418c0 -70.6914 -143.27 -128 -320 -128s-320 57.3086 -320 128c0 45.0645 58.3555 84.6094 146.348 107.418c-1.23926 -7.5166 -2.29102 -19.7998 -2.34766 -27.418
c0 -3.14648 0.304688 -6.21484 0.46875 -9.32227c53.5859 -24.3379 112.734 -38.6777 175.531 -38.6777s121.945 14.3398 175.531 38.6777c0.164062 3.10742 0.46875 6.17578 0.46875 9.32227c-0.0566406 7.61816 -1.1084 19.9014 -2.34766 27.418zM128 88
c13.2471 0.000976562 23.999 10.7529 24 24c0 13.248 -10.752 24 -24 24s-24 -10.752 -24 -24s10.752 -24 24 -24zM320 56c13.2471 0.000976562 23.999 10.7529 24 24c0 13.248 -10.752 24 -24 24s-24 -10.752 -24 -24s10.752 -24 24 -24zM512 88
c13.2471 0.000976562 23.999 10.7529 24 24c0 13.248 -10.752 24 -24 24s-24 -10.752 -24 -24s10.752 -24 24 -24z"/>
			<glyph glyph-name="ufo-beam-primary" unicode="&#xf948;" horiz-adv-x="640"
				   d="M464.965 336.666c85.458 -19.4258 143.035 -55.3906 143.035 -96.666c0 -61.8555 -128.938 -112 -287.993 -112s-287.993 50.1445 -287.993 112c0 41.2754 57.5771 77.2402 143.036 96.666c-3.45312 -12.6738 -5.89844 -25.7539 -5.89844 -39.5234
c0 -2.69531 0.265625 -5.32617 0.40625 -7.99023c45.9287 -20.8613 96.6221 -33.1523 150.449 -33.1523s104.521 12.291 150.449 33.1523c0.140625 2.66406 0.40625 5.29492 0.40625 7.99023c0 13.7695 -2.44531 26.8496 -5.89746 39.5234zM128.012 216
c13.2471 0.000976562 23.999 10.7529 23.999 24c0 13.248 -10.752 24 -24 24s-24 -10.752 -24 -24s10.752 -24 24 -24h0.000976562zM320.007 168c13.2471 0.000976562 23.999 10.7529 24 24c0 13.248 -10.7529 24 -24 24c-13.248 0 -24 -10.752 -24 -24s10.752 -24 24 -24v0
zM512.002 216c13.2471 0.000976562 23.999 10.7529 24 24c0 13.248 -10.752 24 -24 24s-24 -10.752 -24 -24s10.752 -24 24 -24v0z"/>
			<glyph glyph-name="user-alien-primary" unicode="&#xf94a;" horiz-adv-x="448"
				   d="M324 256c6.62305 -0.000976562 11.999 -5.37695 12 -12v-8c0 -33.1201 -26.8799 -60 -60 -60h-24c-6.62305 0.000976562 -11.999 5.37695 -12 12v8c0 33.1201 26.8799 60 60 60h24zM148 256c33.1201 0 60 -26.8799 60 -60v-8
c-0.000976562 -6.62305 -5.37695 -11.999 -12 -12h-24c-33.1201 0 -60 26.8799 -60 60v8c0.000976562 6.62305 5.37695 11.999 12 12h24z"/>
			<glyph glyph-name="user-robot-primary" unicode="&#xf94b;" horiz-adv-x="448"
				   d="M116 128c-19.8506 0.0205078 -35.9795 16.1494 -36 36v175v0.0146484c0 24.832 20.1533 44.9854 44.9854 44.9854h0.0146484h198h0.0175781c24.8301 0 44.9824 -20.1523 44.9824 -44.9824v-0.0175781v-175c-0.0195312 -19.8525 -16.1475 -35.9805 -36 -36h-216zM304 176
v32h-32v-32h32zM288 320c-17.6621 0 -32 -14.334 -32 -31.9961v-0.00390625c0 -17.6641 14.3359 -32 32 -32s32 14.3359 32 32s-14.3359 32 -32 32zM208 208v-32h32v32h-32zM176 176v32h-32v-32h32zM160 320c-17.6621 0 -32 -14.334 -32 -31.9961v-0.00390625
c0 -17.6641 14.3359 -32 32 -32s32 14.3359 32 32s-14.3359 32 -32 32zM352 96c52.9922 0 96 -43.0078 96 -96v0v-32c-0.000976562 -17.6631 -14.3369 -31.999 -32 -32h-96v64c0 17.6641 -14.3359 32 -32 32h-128c-17.6641 0 -32 -14.3359 -32 -32v-64h-96
c-17.6631 0.000976562 -31.999 14.3369 -32 32v32c0 52.9922 43.0078 96 96 96v0h256z"/>
			<glyph glyph-name="user-visor-primary" unicode="&#xf94c;" horiz-adv-x="448"
				   d="M313.594 160c74.1729 -0.0195312 134.387 -60.2334 134.406 -134.406v-41.5938c-0.00683594 -26.4893 -21.5107 -47.9932 -48 -48h-352c-26.4893 0.00683594 -47.9932 21.5107 -48 48v41.5938c0.0195312 74.1729 60.2334 134.387 134.406 134.406h16.6875
c19.1533 -8.83203 51.8154 -16 72.9062 -16s53.7529 7.16797 72.9062 16h16.6875zM353.281 0.203125c1.50195 0.504883 2.7207 2.2002 2.7207 3.78418c0 0.0380859 -0.000976562 0.0996094 -0.00195312 0.137695c-1.15625 35.3438 -11.2656 65.7188 -30.0781 90.3125
c-0.638672 0.835938 -2.01074 1.53613 -3.0625 1.5625c-1.03418 -0.00683594 -2.44043 -0.629883 -3.14062 -1.39062c-19.8281 -23 -31.8281 -53.1094 -35.7031 -89.5c-0.0107422 -0.110352 -0.0195312 -0.289062 -0.0195312 -0.399414
c0 -1.30762 0.925781 -2.88477 2.06641 -3.52246c0.498047 -0.263672 1.36035 -0.477539 1.92383 -0.477539c0.756836 0 1.86133 0.368164 2.4668 0.821289c24.8594 19.3281 33.75 23.8125 37.0469 24.8125c0.366211 0.151367 0.982422 0.319336 1.375 0.375
c2.23438 -1.98438 7.67188 -7.84375 19.8594 -25.0312c0.661133 -0.929688 2.125 -1.68555 3.26562 -1.6875h0.0126953c0.358398 0 0.927734 0.0908203 1.26855 0.203125zM112 272c-17.6631 0.000976562 -31.999 14.3369 -32 32v64c0 17.6641 14.3359 32 32 32h224
c17.6641 0 32 -14.3359 32 -32v-64c-0.000976562 -17.6631 -14.3369 -31.999 -32 -32h-224zM128 352v-32h192v32h-192z"/>
			<glyph glyph-name="vacuum-primary" unicode="&#xf94d;" horiz-adv-x="640"
				   d="M368 96c44.1602 0 80 -35.8398 80 -80s-35.8398 -80 -80 -80s-80 35.8398 -80 80s35.8398 80 80 80zM368 0c8.83203 0 16 7.16797 16 16s-7.16797 16 -16 16s-16 -7.16797 -16 -16s7.16797 -16 16 -16zM640 320c0 -53.1299 -32.8398 -98.1104 -79.04 -117.37
c0.150391 -0.370117 0.259766 -0.769531 0.410156 -1.13965c-7.18652 17.2012 -23.2695 42.2891 -35.9004 56v0c27.751 6.09375 50.2734 34.0986 50.2734 62.5107c0 35.1855 -28.5566 63.8574 -63.7432 63.999h-210.39
c-28.4785 -0.104492 -56.5283 -22.7686 -62.6104 -50.5898l-71.4102 -333.41h8.41016c8.83203 0 16 -7.16797 16 -16v-32c0 -8.83203 -7.16797 -16 -16 -16h-160c-8.83203 0 -16 7.16797 -16 16c0 26.4961 21.5039 48 48 48h54.1201l74.3203 346.81
c12.5596 58.6309 65.1992 101.19 125.17 101.19h210.39c70.5791 -0.0771484 127.923 -57.4209 128 -128z"/>
			<glyph glyph-name="vacuum-robot-primary" unicode="&#xf94e;"
				   d="M431.36 367.36c96.8496 -96.8506 96.8496 -253.87 0 -350.721c-96.8506 -96.8496 -253.87 -96.8496 -350.721 0c-96.8496 96.8506 -96.8496 253.87 0 350.721c96.8506 96.8496 253.87 96.8496 350.721 0zM199.43 44.9199c2.58789 2.58691 4.6875 7.65625 4.6875 11.3154
c0 3.6582 -2.09961 8.72754 -4.6875 11.3145l-67.8799 67.8799c-2.58691 2.58789 -7.65625 4.6875 -11.3145 4.6875c-8.83301 0 -16.002 -7.16895 -16.002 -16.002c0 -3.65918 2.09961 -8.72852 4.68652 -11.3154l67.8799 -67.8799
c2.58691 -2.58789 7.65625 -4.6875 11.3154 -4.6875c3.6582 0 8.72754 2.09961 11.3145 4.6875zM267.31 67.5498c2.58789 2.58691 4.68848 7.65625 4.68848 11.3154c0 3.6582 -2.10059 8.72754 -4.68848 11.3145l-113.13 113.13
c-2.57031 2.49805 -7.56543 4.52539 -11.1494 4.52539c-8.83203 0 -16 -7.16797 -16 -16c0 -3.58203 2.02441 -8.5752 4.51953 -11.1445l113.141 -113.141c2.58594 -2.58496 7.65332 -4.68262 11.3096 -4.68262s8.72363 2.09766 11.3096 4.68262zM289.94 135.43
c2.58691 2.58691 4.6875 7.65625 4.6875 11.3154s-2.10059 8.72754 -4.6875 11.3145l-67.8809 67.8809c-2.58691 2.58691 -7.65625 4.68652 -11.3145 4.68652c-8.83301 0 -16.002 -7.16895 -16.002 -16.002c0 -3.65918 2.09961 -8.72754 4.68652 -11.3154l67.8799 -67.8799
c2.58691 -2.58691 7.65625 -4.6875 11.3154 -4.6875s8.72852 2.10059 11.3154 4.6875zM380.45 67.5498c68.6299 68.6201 68.6201 180.271 0 248.9s-180.28 68.6299 -248.9 0c-2.42871 -2.55664 -4.40039 -7.49414 -4.40039 -11.0205c0 -8.83203 7.16797 -16 16 -16
c3.52637 0 8.46387 1.97168 11.0205 4.40039c56.1602 56.1504 147.521 56.1602 203.66 0s56.1396 -147.5 0 -203.66c-2.42871 -2.55664 -4.40039 -7.49414 -4.40039 -11.0205c0 -8.83203 7.16797 -16 16 -16c3.52637 0 8.46387 1.97168 11.0205 4.40039z"/>
			<glyph glyph-name="window-frame-primary" unicode="&#xf94f;"
				   d="M496 0c8.83203 0 16 -7.16797 16 -16v-32c0 -8.83203 -7.16797 -16 -16 -16h-480c-8.83203 0 -16 7.16797 -16 16v32c0 8.83203 7.16797 16 16 16h16v416c0 17.6641 14.3359 32 32 32h384c17.6641 0 32 -14.3359 32 -32v-416h16zM240 0v160h-144v-160h144zM240 224v160
h-144v-160h144zM416 0v160h-144v-160h144zM416 224v160h-144v-160h144z"/>
			<glyph glyph-name="window-frame-open-primary" unicode="&#xf950;"
				   d="M480 416v-256h-448v256c0 17.6641 14.3359 32 32 32h384c17.6641 0 32 -14.3359 32 -32zM240 224v160h-144v-160h144zM416 224v160h-144v-160h144zM496 0c8.83203 0 16 -7.16797 16 -16v-32c0 -8.83203 -7.16797 -16 -16 -16h-480c-8.83203 0 -16 7.16797 -16 16v32
c0 8.83203 7.16797 16 16 16h16v128h64v-128h320v128h64v-128h16z"/>
			<glyph glyph-name="rocket-secondary" unicode="&#x10f135;"
				   d="M51.9414 293.516c7.34766 14.6094 26.5352 26.4688 42.8789 26.4844h102.055c-0.523438 -0.904297 -1.00391 -1.75781 -1.52344 -2.67188c-16.8789 -33.9551 -54.4492 -109.916 -77.8906 -157.328h-93.4609c-13.2451 0.00292969 -23.9971 10.7559 -24 24
c0.109375 3.09375 1.24316 7.88867 2.53125 10.7031zM224 53.3535c47.2734 23.3945 123.375 61.0664 157.336 78.0742c0.917969 0.523438 1.75781 1.00586 2.66406 1.52539v-0.527344c-0.0625 -0.0410156 -0.121094 -0.0878906 -0.1875 -0.128906v-101.516
c0 -16.3594 -11.875 -35.5469 -26.5 -42.8594l-98.7266 -49.3906c-2.79395 -1.28125 -7.55371 -2.41504 -10.625 -2.53125c-13.0469 0.0869141 -23.7812 10.7451 -23.9609 23.791v93.5625z"/>
			<glyph glyph-name="plug-secondary" unicode="&#x10f1e6;" horiz-adv-x="384"
				   d="M288 448c17.6641 0 32 -14.3359 32 -32v-128h-64v128c0 17.6641 14.3359 32 32 32zM96 448c17.6641 0 32 -14.3359 32 -32v-128h-64v128c0 17.6641 14.3359 32 32 32z"/>
			<glyph glyph-name="hand-spock-secondary" unicode="&#x10f259;"
				   d="M481.26 350.901c16.9629 -4.03711 30.7305 -21.4648 30.7305 -38.9014c0 -2.59375 -0.488281 -6.74707 -1.08984 -9.27051l-68.2969 -286.823c-10.5 -44.1084 -55.8203 -79.9062 -101.161 -79.9062h-0.00195312h-127.366c-29.7627 0 -71.5088 16.5557 -93.1836 36.9531
l-108.3 101.92c-6.92383 6.53418 -12.542 19.5635 -12.542 29.083c0 22.0762 17.916 39.9922 39.9922 39.9922c8.7334 0 20.9922 -4.84961 27.3623 -10.8252l60.5928 -57.0254c0 22.6758 -5.22656 58.7256 -11.668 80.4688l-42.6904 144.073
c-0.90918 3.06934 -1.64746 8.1582 -1.64746 11.3594c0 22.083 17.9229 40.0059 40.0059 40.0059c16.4922 0 33.6768 -12.833 38.3594 -28.6465l37.1562 -125.395c0.974609 -3.29199 4.55371 -5.96484 7.9873 -5.96484c4.59863 0 8.33008 3.73242 8.33008 8.33105
c0 0.582031 -0.118164 1.51172 -0.262695 2.0752l-50.3047 195.641c-0.696289 2.70703 -1.26172 7.17285 -1.26172 9.96875c0 22.0781 17.918 39.9961 39.9961 39.9961c17.1152 0 34.4678 -13.4521 38.7344 -30.0273l56.0967 -218.158
c1.11133 -4.31934 5.63281 -7.82617 10.0928 -7.82617c4.69238 0 9.26562 3.73047 10.208 8.32617l37.6797 183.705c3.64355 17.6387 21.2178 31.9531 39.2285 31.9531c3.41211 0 8.82227 -0.834961 12.0762 -1.86328c19.8594 -6.30078 30.8633 -27.6738 26.6758 -48.0859
l-33.8398 -164.965c-0.0849609 -0.414062 -0.154297 -1.09375 -0.154297 -1.5166c0 -4.16895 3.38379 -7.55273 7.55273 -7.55273c3.29297 0 6.58398 2.59961 7.34766 5.80176l29.3945 123.459c4.05371 16.958 21.4961 30.7217 38.9316 30.7217
c2.58496 0 6.72461 -0.484375 9.23926 -1.08105zM352.003 80c8.81348 0.0185547 15.9668 7.18652 15.9668 16s-7.15332 15.9814 -15.9668 16h-159.999c-8.81348 -0.0185547 -15.9668 -7.18652 -15.9668 -16s7.15332 -15.9814 15.9668 -16
c44.1133 -0.046875 79.9531 -35.8867 79.999 -80c0 -8.83203 7.16797 -16 16 -16s16 7.16797 16 16v0.078125c0 25.9775 -15.0918 61.7822 -33.6875 79.9219h81.6875z"/>
			<glyph glyph-name="shower-secondary" unicode="&#x10f2cc;"
				   d="M336 224c8.83203 0 16 -7.16797 16 -16s-7.16797 -16 -16 -16s-16 7.16797 -16 16s7.16797 16 16 16zM336 128c-8.83203 0 -16 7.16797 -16 16s7.16797 16 16 16s16 -7.16797 16 -16s-7.16797 -16 -16 -16zM304 128c8.83203 0 16 -7.16797 16 -16s-7.16797 -16 -16 -16
s-16 7.16797 -16 16s7.16797 16 16 16zM432 224c-8.83203 0 -16 7.16797 -16 16s7.16797 16 16 16s16 -7.16797 16 -16s-7.16797 -16 -16 -16zM368 160c-8.83203 0 -16 7.16797 -16 16s7.16797 16 16 16s16 -7.16797 16 -16s-7.16797 -16 -16 -16zM384 208
c0 8.83203 7.16797 16 16 16s16 -7.16797 16 -16s-7.16797 -16 -16 -16s-16 7.16797 -16 16zM304 192c8.83203 0 16 -7.16797 16 -16s-7.16797 -16 -16 -16s-16 7.16797 -16 16s7.16797 16 16 16zM336 96c8.83203 0 16 -7.16797 16 -16s-7.16797 -16 -16 -16
s-16 7.16797 -16 16s7.16797 16 16 16zM464 224c8.83203 0 16 -7.16797 16 -16s-7.16797 -16 -16 -16s-16 7.16797 -16 16s7.16797 16 16 16zM496 256c8.83203 0 16 -7.16797 16 -16s-7.16797 -16 -16 -16s-16 7.16797 -16 16s7.16797 16 16 16zM432 192
c8.83203 0 16 -7.16797 16 -16s-7.16797 -16 -16 -16s-16 7.16797 -16 16s7.16797 16 16 16zM400 160c8.83203 0 16 -7.16797 16 -16s-7.16797 -16 -16 -16s-16 7.16797 -16 16s7.16797 16 16 16zM304 64c8.83203 0 16 -7.16797 16 -16s-7.16797 -16 -16 -16
s-16 7.16797 -16 16s7.16797 16 16 16zM368 256c8.83203 0 16 -7.16797 16 -16s-7.16797 -16 -16 -16s-16 7.16797 -16 16s7.16797 16 16 16zM368 128c8.83203 0 16 -7.16797 16 -16s-7.16797 -16 -16 -16s-16 7.16797 -16 16s7.16797 16 16 16z"/>
			<glyph glyph-name="bath-secondary" unicode="&#x10f2cd;"
				   d="M80 192h-48v186.75v0.0361328c0 38.2256 31.0244 69.25 69.25 69.25c15.835 0 37.7734 -9.08887 48.9697 -20.2861l19.2607 -19.2695c29.8994 13.1299 59.1094 7.60938 79.7295 -8.62012l0.169922 0.169922c2.58496 2.57617 7.64551 4.66699 11.2949 4.66699
c3.66406 0 8.7373 -2.10449 11.3252 -4.69727l11.3096 -11.3096c2.58789 -2.58691 4.68848 -7.65625 4.68848 -11.3154s-2.10059 -8.72852 -4.68848 -11.3154l-105.369 -105.369c-2.58691 -2.58789 -7.65625 -4.68848 -11.3154 -4.68848s-8.72852 2.10059 -11.3154 4.68848
l-11.3096 11.3096c-2.58496 2.58691 -4.68262 7.65332 -4.68262 11.3096c0 3.65723 2.09766 8.72363 4.68262 11.3105l0.169922 0.169922c-16.2295 20.6201 -21.75 49.8496 -8.62012 79.7295l-19.2695 19.2607c-3.43652 3.42969 -10.165 6.21387 -15.0205 6.21387
c-11.7266 0 -21.251 -9.51758 -21.2598 -21.2441v-186.75z"/>
			<glyph glyph-name="compress-alt-secondary" unicode="&#x10f422;" horiz-adv-x="448"
				   d="M224 168v-112c0 -21.3799 -25.7998 -32.0898 -40.9199 -17l-31.0801 33l-99.3096 -99.3096c-2.58691 -2.58789 -7.65625 -4.68848 -11.3154 -4.68848s-8.72852 2.10059 -11.3154 4.68848l-25.3691 25.3691c-2.58789 2.58691 -4.68848 7.65625 -4.68848 11.3154
s2.10059 8.72852 4.68848 11.3154l99.3096 99.3096l-32.9199 31c-15.1201 15.1201 -4.41016 41 17 41h112c13.2041 -0.0439453 23.9199 -10.7959 23.9199 -24v0z"/>
			<glyph glyph-name="expand-alt-secondary" unicode="&#x10f424;" horiz-adv-x="448"
				   d="M0 -8v112c0 21.3799 25.7998 32.0898 40.9199 17l31.0801 -33l92.6904 92.6904c2.58594 2.58398 7.65332 4.68262 11.3096 4.68262s8.72363 -2.09863 11.3096 -4.68262l25.3809 -25.3809c2.58398 -2.58594 4.68262 -7.65332 4.68262 -11.3096
s-2.09863 -8.72363 -4.68262 -11.3096l-92.6904 -92.6904l32.9199 -31c15.1201 -15.1201 4.41016 -41 -17 -41h-111.92c-13.248 0 -24 10.752 -24 24z"/>
			<glyph glyph-name="balance-scale-left-secondary" unicode="&#x10f515;" horiz-adv-x="640"
				   d="M544 -16v-32c0 -8.83203 -7.16797 -16 -16 -16h-224c-8.83203 0 -16 7.16797 -16 16v342.75c-3.76953 1.63379 -9.59375 4.82324 -13 7.12012l-142 -47.6299c-1.36719 -0.458984 -3.64844 -0.832031 -5.09082 -0.832031c-6.35254 0 -13.1484 4.88867 -15.1689 10.9121
l-10.1699 30.3398c-0.458984 1.36719 -0.832031 3.64844 -0.832031 5.09082c0 6.35254 4.88867 13.1484 10.9121 15.1689l128.35 43.0801c-0.452148 2.74219 -0.899414 7.22266 -1 10c0 44.1602 35.8398 80 80 80c29.6904 0 55.2998 -16.3604 69.1104 -40.3701
l117.89 39.5303c1.36719 0.458984 3.64844 0.831055 5.09082 0.831055c6.35254 0 13.1484 -4.8877 15.1689 -10.9111l10.1699 -30.3398c0.458984 -1.36816 0.832031 -3.64844 0.832031 -5.09082c0 -6.35352 -4.88867 -13.1494 -10.9121 -15.1689l-132 -44.2607
c-6.21094 -18.3555 -25.6318 -39.6221 -43.3496 -47.4697v-294.75h176c8.83203 0 16 -7.16797 16 -16z"/>
			<glyph glyph-name="balance-scale-right-secondary" unicode="&#x10f516;" horiz-adv-x="640"
				   d="M112 0h176v294.76c-17.7314 7.83984 -37.165 29.1064 -43.3799 47.4707l-132 44.2598c-6.02344 2.02051 -10.9111 8.81641 -10.9111 15.1689c0 1.44238 0.37207 3.72363 0.831055 5.09082l10.1602 30.3398c2.01758 6.03027 8.81445 10.9238 15.1729 10.9238
c1.45312 0 3.75 -0.37793 5.12695 -0.84375l117.89 -39.54c13.8105 24.0098 39.4199 40.3701 69.1104 40.3701c44.1602 0 80 -35.8398 80 -80c-0.100586 -2.77734 -0.547852 -7.25781 -1 -10l128.4 -43.0498c6.02246 -2.02051 10.9111 -8.81641 10.9111 -15.1699
c0 -1.44238 -0.37207 -3.72266 -0.831055 -5.08984l-10.1807 -30.3701c-2.01758 -6.03027 -8.81445 -10.9238 -15.1729 -10.9238c-1.45312 0 -3.75 0.37793 -5.12695 0.84375l-142 47.6299c-3.40625 -2.29688 -9.23047 -5.48633 -13 -7.12012v-342.75
c0 -8.83203 -7.16797 -16 -16 -16h-224c-8.83203 0 -16 7.16797 -16 16v32c0 8.83203 7.16797 16 16 16z"/>
			<glyph glyph-name="robot-secondary" unicode="&#x10f544;" horiz-adv-x="640"
				   d="M288 32v32h64v-32h-64zM192 32v32h64v-32h-64zM0 192c0 17.6436 14.3184 32 31.9619 32h0.0380859h32v-192h-32h-0.0380859c-17.6436 0 -31.9619 14.3184 -31.9619 31.9619v0.0380859v128zM384 32v32h64v-32h-64zM608 224c17.6436 0 32 -14.3184 32 -31.9619v-0.0380859
v-128v-0.0380859c0 -17.6436 -14.3184 -31.9619 -31.9619 -31.9619h-0.0380859h-32v192h32zM320 448c17.6641 0 32 -14.3359 32 -32v-64h-64v64c0 17.6641 14.3359 32 32 32z"/>
			</font>
</defs>
</svg>
